<?xml version="1.0" encoding="UTF-8"?><svg id="Capa_2" xmlns="http://www.w3.org/2000/svg" viewBox="0 0 148.88 251.24"><defs><style>.cls-1{fill:#a8aaae;}</style></defs><g id="Capa_1-2"><path d="M125.62,0H23.26C10.42,0,0,10.42,0,23.26v204.71c0,12.84,10.42,23.26,23.26,23.26h102.36c12.84,0,23.26-10.42,23.26-23.26V23.26c0-12.84-10.42-23.26-23.26-23.26ZM139.58,227.97c0,7.68-6.28,13.96-13.96,13.96H23.26c-7.68,0-13.96-6.28-13.96-13.96V23.26c0-7.68,6.28-13.96,13.96-13.96h102.36c7.68,0,13.96,6.28,13.96,13.96v204.71Z"/><path d="M74.44,204.71c-7.68,0-13.96,6.28-13.96,13.96s6.28,13.96,13.96,13.96,13.96-6.28,13.96-13.96-6.28-13.96-13.96-13.96ZM74.44,223.32c-2.56,0-4.65-2.09-4.65-4.65s2.09-4.65,4.65-4.65,4.65,2.09,4.65,4.65-2.09,4.65-4.65,4.65Z"/><path d="M93.05,18.61h-18.61c-2.56,0-4.65,2.09-4.65,4.65s2.09,4.65,4.65,4.65h18.61c2.56,0,4.65-2.09,4.65-4.65s-2.09-4.65-4.65-4.65Z"/><path d="M55.92,18.61h-.05c-2.56,0-4.61,2.09-4.61,4.65s2.09,4.65,4.65,4.65,4.65-2.09,4.65-4.65-2.09-4.65-4.65-4.65h0Z"/><path d="M66.89,74.18c-.87.41-1.51,1.07-1.92,1.95-.26.56-.27.87-.34,5.02l-.06,4.44-1.35.41c-2,.61-3.72,1.3-5.76,2.33l-1.82.92-2.89-2.83c-3.38-3.31-3.69-3.51-5.22-3.51-.83,0-1.16.06-1.65.3-.44.22-1.95,1.63-5.35,4.97-5.27,5.21-5.33,5.29-5.33,6.82,0,1.38.25,1.71,3.66,5.12l3.01,3.01-.73,1.45c-.94,1.85-1.78,4.02-2.31,5.9-.22.82-.42,1.55-.45,1.64-.04.11-1.14.17-4.29.2-3.99.04-4.28.05-4.83.31-.82.39-1.5,1.02-1.9,1.78l-.35.66-.08,13.51.35.76c.4.89,1.2,1.69,2.09,2.11.57.27.85.28,4.8.35l4.19.06.28,1.09c.53,1.99,1.24,3.9,2.23,5.9l.97,1.97-3.02,3.01c-3.4,3.38-3.63,3.71-3.63,5.14s.1,1.63,5.37,6.79c3.23,3.18,4.91,4.74,5.36,4.98.56.28.83.35,1.6.35,1.5,0,2.01-.34,5.31-3.54l2.78-2.7,2.16,1.04c2.06.98,4.73,2,6.19,2.33l.67.17.04,4.47c.04,4.33.05,4.5.32,5.06.48.96,1.02,1.51,1.95,1.96l.87.42,6.2.04c6.6.04,7.32,0,8.26-.56.73-.42,1.42-1.19,1.77-1.94.28-.63.3-.77.34-5.06l.04-4.43.54-.13c1.85-.46,5.27-1.82,7.17-2.85.53-.27,1.01-.51,1.07-.51.06,0,1.39,1.25,2.95,2.78,3.24,3.19,3.57,3.42,5.12,3.42s1.82-.18,7.13-5.4c3.47-3.4,4.71-4.7,4.93-5.15.4-.83.46-1.89.18-2.78-.21-.63-.49-.94-3.38-3.78l-3.16-3.1.77-1.49c.94-1.81,1.83-4.03,2.42-6.05l.42-1.5,4.12-.06c3.57-.05,4.17-.09,4.62-.3,1.33-.59,2.08-1.42,2.45-2.7.18-.63.21-1.52.17-7.17-.04-6.41-.04-6.43-.34-7.02-.41-.83-1.11-1.51-1.96-1.91q-.71-.34-4.9-.4l-4.18-.06-.3-1.09c-.49-1.87-1.33-4.04-2.31-6.05l-.94-1.92,2.97-2.94c1.63-1.63,3.12-3.21,3.31-3.54.3-.51.35-.72.35-1.61,0-.8-.06-1.15-.28-1.55-.31-.58-8.98-9.29-9.91-9.94-1.11-.79-2.66-.92-3.83-.32-.32.17-1.8,1.49-3.52,3.16l-2.95,2.88-1.56-.82c-2.02-1.07-3.37-1.64-5.43-2.32l-1.68-.56-.06-4.38c-.06-4.25-.08-4.38-.37-5.05-.39-.85-1.46-1.86-2.28-2.14-.53-.18-1.5-.21-7.33-.21h-6.72l-.77.36h-.04ZM80.12,82.37c0,4.3.03,4.59.27,5.14.53,1.19,1.04,1.52,3.41,2.26,2.23.7,3.9,1.38,5.88,2.42.96.52,1.97,1.04,2.25,1.19.28.14.82.28,1.2.31,1.29.1,1.58-.09,4.98-3.38,1.7-1.64,3.12-3,3.18-3.02.04-.01,1.83,1.73,3.99,3.88l3.91,3.91-3.09,3.04c-1.7,1.66-3.2,3.23-3.33,3.47-.17.31-.23.72-.23,1.35,0,.89.03.96,1.23,3.3,1.3,2.54,1.95,4.17,2.57,6.47.22.79.49,1.61.59,1.83.3.58.93,1.23,1.54,1.55.49.27.7.28,4.88.32l4.35.04v11.21l-4.42.04c-4.28.04-4.44.05-4.96.32-1.08.58-1.34,1.03-2.18,3.91-.65,2.25-1.2,3.6-2.48,6.05-1.25,2.42-1.4,3.05-1.01,4.11.2.52.75,1.13,3.41,3.74l3.18,3.12-1.49,1.5c-.82.83-2.62,2.59-4,3.94l-2.52,2.43-2.97-2.9c-4.35-4.24-4.26-4.22-8.2-2.21-2.62,1.34-3.76,1.81-6.2,2.54-2.45.75-2.95,1.06-3.47,2.21-.25.56-.27.83-.27,5.19v4.62h-11.24v-4.36c0-5.16-.04-5.41-1.03-6.38-.52-.49-.82-.66-1.58-.88-3.59-1.06-5.27-1.71-8.08-3.19-1.42-.73-2-.98-2.54-1.03-1.3-.14-1.56.04-5.02,3.41l-3.1,3.02-7.9-7.9,2.84-2.8c3.47-3.42,3.51-3.49,3.76-4.16.39-1.09.25-1.65-.94-3.8-1.02-1.81-1.95-4.11-2.54-6.21-.82-2.9-1.08-3.38-2.18-3.98-.52-.27-.68-.28-5.02-.32l-4.48-.04v-11.22h4.25c4.45,0,4.69-.03,5.59-.61.77-.52,1.13-1.18,1.66-3.14.66-2.4,1.45-4.36,2.71-6.83,1.13-2.18,1.28-2.76,1.02-3.72-.15-.56-.49-.94-3.41-3.88l-3.23-3.25,2.18-2.21c1.21-1.21,2.99-2.95,3.97-3.87l1.76-1.68,3.04,2.99c3.21,3.15,3.66,3.47,4.75,3.49.76,0,1.3-.2,2.81-1.02,2.08-1.14,3.99-1.95,6.45-2.75,1.3-.44,2.59-.94,2.88-1.13.63-.44,1.09-1.11,1.28-1.85.06-.31.13-2.45.13-4.85v-4.29h11.24v4.54h-.02Z"/><path class="cls-1" d="M113.34,116.27c-4.18-.04-4.39-.05-4.88-.32-.61-.32-1.24-.97-1.54-1.55-.1-.22-.38-1.05-.59-1.83-.62-2.29-1.27-3.93-2.57-6.47-1.2-2.34-1.23-2.41-1.23-3.3,0-.63.07-1.04.23-1.35.13-.24,1.63-1.81,3.33-3.47l3.09-3.04-3.91-3.91c-2.15-2.15-3.95-3.89-3.99-3.88-.05.03-1.47,1.38-3.18,3.02-3.41,3.29-3.69,3.49-4.98,3.38-.38-.03-.91-.17-1.2-.31-.27-.14-1.29-.67-2.25-1.19-1.98-1.03-3.65-1.72-5.88-2.42-2.37-.74-2.88-1.07-3.41-2.26-.24-.55-.27-.84-.27-5.14h.02v-4.55h-11.24v4.29c0,2.4-.07,4.54-.13,4.85-.19.74-.65,1.41-1.28,1.85-.29.19-1.58.69-2.88,1.13-2.46.8-4.37,1.61-6.45,2.75-1.51.83-2.05,1.02-2.81,1.02-1.09-.02-1.54-.34-4.75-3.49l-3.04-2.99-1.76,1.68c-.98.92-2.75,2.66-3.97,3.87l-2.18,2.21,3.23,3.25c2.92,2.94,3.25,3.33,3.41,3.88.26.96.1,1.54-1.02,3.72-1.27,2.46-2.05,4.43-2.71,6.83-.54,1.96-.89,2.62-1.66,3.14-.9.58-1.14.61-5.59.61h-4.25v11.22l4.48.04c4.34.04,4.5.05,5.02.32,1.09.59,1.36,1.07,2.18,3.98.59,2.1,1.52,4.4,2.54,6.21,1.19,2.14,1.33,2.7.94,3.8-.25.67-.29.74-3.76,4.16l-2.84,2.8,7.9,7.9,3.1-3.02c3.46-3.37,3.72-3.55,5.02-3.41.54.05,1.12.3,2.54,1.03,2.81,1.48,4.49,2.13,8.08,3.19.76.22,1.06.39,1.58.88.99.97,1.03,1.21,1.03,6.38v4.36h11.24v-4.62c0-4.36.02-4.63.27-5.19.52-1.15,1.02-1.46,3.47-2.21,2.44-.73,3.57-1.2,6.2-2.54,3.94-2.01,3.85-2.02,8.2,2.21l2.97,2.9,2.52-2.43c1.38-1.34,3.19-3.11,4-3.94l1.49-1.5-3.18-3.12c-2.66-2.62-3.21-3.23-3.41-3.74-.4-1.06-.24-1.69,1.01-4.11,1.28-2.45,1.83-3.81,2.48-6.05.84-2.88,1.09-3.34,2.18-3.91.52-.27.68-.28,4.96-.32l4.42-.04v-11.21l-4.35-.04ZM91.98,124.36c-.07.5-.19.97-.33,1.42-.01.35-.02.69-.06,1.04-.41,4.25-2.19,7.6-5.9,9.83-3.61,2.17-8.09,3.12-12.27,3.04-9.75-.18-17.82-8.59-17.53-18.37.02-.58.34-.96.76-1.14.38-2.39.99-4.71,2.13-6.86.18-.38.38-.75.63-1.1.2-.29.47-.44.74-.52.92-1.52,2.08-2.9,3.56-4.05,3.07-2.38,7.16-3.03,11.04-2.77.81.03,1.63.12,2.45.28.21.03.42.06.62.1,4.33.82,7.67,3.36,10.28,6.85,2.56,3.43,4.48,7.89,3.89,12.25Z"/><path d="M72.17,101.27c-2.76.42-4.62.97-6.71,1.99-4.35,2.12-7.53,5.31-9.54,9.57-1.42,3-2.02,5.69-2.04,9.03-.01,2.16.13,3.37.61,5.29,1.91,7.6,7.93,13.38,15.78,15.13,1.09.25,1.65.28,4.17.28s3.07-.04,4.22-.28c5.38-1.18,9.99-4.34,13.04-8.96,2.47-3.73,3.67-8.46,3.28-12.89-.18-2.11-.41-3.3-1.04-5.21-2.02-6.08-6.7-10.82-12.77-12.92-2.25-.79-3.51-.99-6.21-1.04-1.32-.03-2.56-.01-2.78.01h-.01ZM77.79,105.7c6.87,1.55,11.79,6.84,12.85,13.83,1.08,7.1-2.56,14.07-9.08,17.35-3.63,1.83-8.27,2.16-12.19.85-8.33-2.78-12.97-11.48-10.75-20.08,1.64-6.29,6.92-11.09,13.37-12.13,1.58-.26,4.29-.18,5.81.17h0Z"/></g></svg>