<?xml version="1.0" encoding="UTF-8"?><svg id="Capa_2" xmlns="http://www.w3.org/2000/svg" viewBox="0 0 244.14 244.1"><defs><style>.cls-1{fill:#3c92cc;}</style></defs><g id="Capa_1-2"><path class="cls-1" d="M166.67,95.06c-4.78-.04-5.02-.06-5.58-.37-.7-.37-1.42-1.11-1.76-1.77-.12-.25-.43-1.2-.68-2.1-.71-2.62-1.45-4.49-2.94-7.39-1.38-2.68-1.41-2.75-1.41-3.77,0-.72.08-1.19.27-1.55.15-.28,1.86-2.07,3.81-3.97l3.53-3.47-4.48-4.48c-2.46-2.46-4.51-4.45-4.56-4.44-.06.03-1.68,1.58-3.63,3.46-3.9,3.76-4.22,3.99-5.7,3.87-.44-.03-1.05-.19-1.37-.35-.31-.17-1.48-.77-2.57-1.36-2.26-1.18-4.17-1.97-6.72-2.76-2.71-.84-3.3-1.23-3.9-2.59-.28-.63-.31-.96-.31-5.88h.02v-5.2h-12.85v4.9c0,2.75-.08,5.2-.15,5.55-.21.84-.74,1.61-1.46,2.11-.33.21-1.81.79-3.3,1.29-2.81.91-5,1.84-7.37,3.14-1.73.95-2.34,1.17-3.22,1.17-1.25-.02-1.76-.38-5.43-3.99l-3.47-3.41-2.01,1.92c-1.12,1.05-3.15,3.04-4.54,4.43l-2.49,2.53,3.69,3.72c3.34,3.37,3.72,3.8,3.9,4.44.3,1.09.12,1.76-1.17,4.25-1.45,2.82-2.34,5.06-3.1,7.81-.61,2.24-1.02,3-1.9,3.59-1.03.67-1.3.7-6.39.7h-4.85v12.83l5.13.05c4.96.04,5.15.06,5.74.37,1.25.68,1.56,1.23,2.49,4.55.67,2.4,1.74,5.03,2.91,7.1,1.36,2.45,1.52,3.09,1.07,4.34-.28.77-.33.84-4.3,4.75l-3.25,3.2,9.04,9.04,3.54-3.46c3.96-3.85,4.25-4.06,5.74-3.9.61.06,1.28.34,2.91,1.18,3.22,1.69,5.14,2.44,9.24,3.65.87.25,1.21.44,1.8,1,1.13,1.1,1.18,1.39,1.18,7.29v4.99h12.85v-5.29c0-4.99.02-5.3.31-5.94.59-1.32,1.16-1.67,3.97-2.53,2.79-.84,4.09-1.37,7.09-2.91,4.51-2.3,4.41-2.32,9.38,2.53l3.4,3.32,2.88-2.78c1.58-1.54,3.64-3.56,4.58-4.5l1.7-1.71-3.63-3.57c-3.04-2.99-3.67-3.69-3.9-4.28-.45-1.21-.28-1.93,1.15-4.7,1.46-2.8,2.1-4.35,2.84-6.92.96-3.3,1.25-3.82,2.49-4.48.59-.31.78-.32,5.67-.37l5.05-.05v-12.82l-4.97-.05ZM142.25,104.31c-.08.57-.22,1.1-.38,1.62-.02.4-.03.79-.07,1.19-.47,4.86-2.51,8.69-6.75,11.24-4.13,2.48-9.25,3.57-14.04,3.48-11.15-.21-20.38-9.83-20.04-21.01.02-.67.39-1.09.87-1.3.44-2.73,1.13-5.38,2.43-7.84.21-.44.44-.86.72-1.26.23-.33.54-.5.85-.59,1.06-1.74,2.37-3.32,4.07-4.63,3.52-2.73,8.19-3.47,12.63-3.17.93.03,1.86.13,2.8.33.24.04.48.07.71.11,4.95.94,8.77,3.84,11.75,7.83,2.93,3.92,5.12,9.03,4.44,14Z"/><path d="M119.59,77.92c-3.16.48-5.29,1.11-7.68,2.27-4.97,2.42-8.61,6.07-10.91,10.94-1.62,3.43-2.32,6.51-2.33,10.32-.01,2.47.15,3.85.7,6.05,2.19,8.69,9.07,15.3,18.04,17.31,1.25.28,1.89.32,4.77.32s3.51-.05,4.83-.32c6.15-1.35,11.43-4.96,14.91-10.25,2.82-4.26,4.19-9.67,3.75-14.74-.21-2.41-.47-3.77-1.19-5.95-2.32-6.96-7.67-12.37-14.6-14.78-2.57-.9-4.02-1.13-7.1-1.19-1.51-.03-2.92-.01-3.18.01h-.01ZM126.02,82.98c7.86,1.77,13.48,7.83,14.69,15.82,1.24,8.12-2.92,16.1-10.38,19.85-4.15,2.1-9.46,2.47-13.94.97-9.52-3.18-14.84-13.12-12.3-22.96,1.88-7.19,7.91-12.69,15.28-13.87,1.8-.3,4.9-.21,6.64.19h0Z"/><path d="M232.4,192.33h-10.46v-4.84c0-10.19-8.29-18.49-18.49-18.49h-77.51v-13.14h.43c3.64,0,6.74-2.67,7.25-6.2l1.09-6.98c2.64-.81,5.15-1.86,7.6-3.14l5.74,4.22c2.95,2.09,7.01,1.74,9.42-.78l6.12-6.05c1.98-2.02,2.6-4.92,1.67-7.52-.08-.27-.19-.5-.31-.78h20.69c21.08,0,38.25-17.17,38.25-38.21s-15.66-36.7-35.46-38.13c-6.47-19.8-25.07-33.44-46.15-33.44-.81,0-1.59,0-2.4.04C130.67,7.01,116.45,0,101.38,0c-26.78,0-48.6,21.78-48.6,48.56,0,1.36.04,2.71.16,4.03-18.52,2.75-32.55,18.64-32.55,37.82,0,21.08,17.17,38.21,38.25,38.21h20.73c-.43.93-.78,1.86-.81,2.91-.08,2.02.7,3.95,2.17,5.39l6.01,5.97c2.52,2.6,6.63,2.87,9.49.74l5.74-4.15c2.4,1.28,4.92,2.33,7.6,3.14l1.05,7.05c.62,3.57,3.68,6.12,7.25,6.12h.7v13.14H41.04c-10.19,0-18.49,8.29-18.49,18.49v4.84h-10.81c-6.47,0-11.74,5.27-11.74,11.74v28.33c0,6.47,5.27,11.74,11.74,11.74h28.33c6.47,0,11.74-5.27,11.74-11.74v-28.33c0-6.47-5.27-11.74-11.74-11.74h-10.11v-4.84c0-6.12,4.96-11.08,11.08-11.08h77.51v15.97h-10.97c-6.47,0-11.74,5.27-11.74,11.74v28.33c0,6.47,5.27,11.74,11.74,11.74h28.33c6.47,0,11.74-5.27,11.74-11.74v-28.33c0-6.47-5.27-11.74-11.74-11.74h-9.96v-15.97h77.51c6.12,0,11.08,4.96,11.08,11.08v4.84h-10.46c-6.47,0-11.74,5.27-11.74,11.74v28.33c0,6.47,5.27,11.74,11.74,11.74h28.33c6.47,0,11.74-5.27,11.74-11.74v-28.33c0-6.43-5.27-11.66-11.74-11.66ZM158.23,131.76c-.08-.12-.12-.31-.16-.5.04.23.12.23.23.47l-.08.04ZM27.79,90.41c0-16.55,12.94-30.07,29.45-30.81,1.05-.04,2.05-.54,2.71-1.36s.93-1.9.78-2.95c-.39-2.25-.58-4.5-.58-6.74,0-22.71,18.49-41.19,41.19-41.19,13.37,0,25.96,6.55,33.68,17.48.78,1.09,2.02,1.67,3.37,1.55,1.24-.12,2.52-.19,3.8-.19,18.68,0,35.03,12.56,39.8,30.58.43,1.63,1.9,2.75,3.6,2.75,17.01,0,30.85,13.83,30.85,30.85s-13.83,30.85-30.85,30.85h-25.34c1.2-2.29,2.17-4.65,2.95-7.09l7.01-1.09c3.57-.58,6.2-3.6,6.2-7.21v-8.56c0-3.57-2.67-6.67-6.2-7.21h0l-6.98-1.09c-.81-2.64-1.86-5.19-3.18-7.6l4.19-5.66c2.17-2.91,1.86-7.01-.7-9.53l-6.01-5.97c-2.48-2.64-6.59-2.98-9.53-.81l-5.66,4.19c-2.48-1.32-5.04-2.36-7.63-3.18l-1.05-6.9c-.5-3.6-3.6-6.28-7.25-6.28h-8.49c-3.6,0-6.67,2.6-7.29,6.24l-1.01,6.94c-1.09.35-2.13.7-3.18,1.16-.39.12-.74.27-1.24.47-1.09.43-2.13.93-3.26,1.51l-5.7-4.19c-2.98-2.13-6.98-1.82-9.46.74l-5.97,5.97c-2.64,2.52-2.95,6.63-.78,9.57l4.19,5.66c-1.28,2.4-2.36,4.96-3.18,7.6l-6.98,1.09c-3.57.54-6.24,3.64-6.24,7.21v8.56c0,3.6,2.64,6.67,6.24,7.21l6.98,1.09c.78,2.48,1.74,4.84,2.95,7.09h-25.34c-17.05.12-30.89-13.72-30.89-30.73ZM116.53,139.16c-.23-1.47-1.32-2.67-2.79-3.06-3.64-.89-7.01-2.29-10.08-4.19-.58-.39-1.28-.54-1.94-.54-.78,0-1.51.23-2.17.7l-7.56,5.62-6.01-5.89,3.06-4.15c.39-.35.74-.78.93-1.28l1.63-2.17c.89-1.2.97-2.87.16-4.15-1.9-3.06-3.33-6.47-4.22-10.11-.35-1.43-1.55-2.52-3.02-2.75l-9.26-1.36-.04-8.45,9.3-1.43c1.47-.23,2.67-1.32,3.02-2.79.89-3.6,2.29-7.01,4.22-10.11.78-1.28.74-2.91-.16-4.15l-5.62-7.48,5.93-6.05,7.6,5.62c1.2.89,2.83.97,4.11.19,1.55-.93,2.98-1.67,4.65-2.36.16-.08.35-.16.54-.19.12-.04.27-.08.39-.16,1.43-.62,2.95-1.09,4.57-1.47,1.47-.35,2.6-1.55,2.79-3.06l1.32-9.3,8.41-.04,1.43,9.34c.23,1.47,1.36,2.67,2.79,3.02,3.49.81,6.9,2.25,10.11,4.19,1.28.78,2.91.7,4.11-.19l7.44-5.58,6.05,5.89-5.62,7.6c-.89,1.2-.97,2.83-.19,4.15,1.94,3.14,3.33,6.55,4.22,10.11.35,1.43,1.55,2.56,3.02,2.79l9.26,1.43.08,8.37-9.34,1.43c-1.47.23-2.67,1.32-3.02,2.75-.89,3.57-2.29,6.94-4.22,10.11-.78,1.28-.7,2.91.19,4.11l5.58,7.56-5.85,6.01-7.63-5.62c-1.2-.89-2.83-.97-4.11-.19-3.18,1.9-6.59,3.29-10.15,4.19-1.43.35-2.56,1.55-2.79,3.02l-1.36,9.26-3.88.04c-.08,0-.16-.04-.23-.04s-.16.04-.23.04l-4.11.04-1.32-9.26ZM44.41,204.03v28.33c0,2.4-1.94,4.34-4.34,4.34H11.74c-2.4,0-4.34-1.94-4.34-4.34v-28.33c0-2.4,1.94-4.34,4.34-4.34h28.33c2.36.04,4.34,1.98,4.34,4.34ZM140.25,204.03v28.33c0,2.4-1.94,4.34-4.34,4.34h-28.33c-2.4,0-4.34-1.94-4.34-4.34v-28.33c0-2.4,1.94-4.34,4.34-4.34h28.33c2.4.04,4.34,1.98,4.34,4.34ZM236.74,232.36c0,2.4-1.94,4.34-4.34,4.34h-28.33c-2.4,0-4.34-1.94-4.34-4.34v-28.33c0-2.4,1.94-4.34,4.34-4.34h28.33c2.4,0,4.34,1.94,4.34,4.34v28.33Z"/></g></svg>