<?xml version="1.0" encoding="UTF-8"?><svg id="Capa_2" xmlns="http://www.w3.org/2000/svg" viewBox="0 0 178.93 164.29"><defs><style>.cls-1{fill:#3c92cc;}.cls-2{fill-rule:evenodd;}.cls-3{fill:#a8aaae;}</style></defs><g id="Capa_1-2"><circle class="cls-1" cx="26.95" cy="82.14" r="11.29"/><circle class="cls-1" cx="56.68" cy="148.76" r="11.29"/><circle class="cls-3" cx="15.52" cy="126.02" r="11.29"/><circle class="cls-3" cx="15.66" cy="38.25" r="11.29"/><circle class="cls-1" cx="56.69" cy="15.51" r="11.29"/><path class="cls-2" d="M102.43,6.96v41.62c7.74.68,14.7,4.1,19.88,9.29,5.82,5.82,9.41,13.86,9.41,22.73s-3.59,16.91-9.41,22.72c-5.19,5.19-12.14,8.61-19.88,9.29v41.61l6.41.02c.54-1.69,1.17-4.29,1.78-6.84,1.03-4.26,2.02-8.41,3.18-9.8.05-.07.11-.13.18-.19h0c1.3-1.28,3.67-2.01,5.75-2.64l.13-.04c.74-.23,1.41-.44,1.85-.62h0c1.79-.76,3.03-1.41,3.95-1.89,1.85-.96,2.81-1.45,4.44-1.29h0c1.51.15,2.67.86,5.07,2.35.98.61,2.22,1.38,4.07,2.45l1.2.71c1.43.86,3.39,2.02,4.83,2.75l12.94-12.98c-.86-1.74-2.4-4.31-3.62-6.35-.54-.9-1.01-1.7-1.46-2.48-.47-.83-1-1.72-1.42-2.44-1.16-1.94-1.7-2.86-1.75-4.31-.04-1.35.4-2.21,1.22-3.83h0c.4-.77.91-1.79,1.51-3.15.76-1.73,1.21-3.15,1.57-4.31.93-2.96,1.47-4.66,4.17-5.61,1.4-.48,3.87-1.1,6.56-1.76,2.97-.73,6.23-1.54,8.22-2.19l.04-18.44c-2.41-.76-6.91-1.92-10.35-2.81-1.45-.37-2.71-.7-3.74-.98-3.44-.93-3.73-1.91-4.67-5.1-.33-1.12-.8-2.69-1.82-5.01-.68-1.52-1.15-2.44-1.5-3.14-.8-1.56-1.22-2.39-1.2-3.71.02-1.44.54-2.35,1.63-4.24.4-.69.87-1.52,1.34-2.38h0s0,0,0,0c.65-1.21,1.56-2.79,2.45-4.35.92-1.62,1.83-3.21,2.71-4.86l-12.82-12.79c-2.73,1.4-8.37,4.69-11.15,6.32l-.15.08-1.05.61-.23.13c-1.7.98-2.4,1.39-4.07,1.04l-.15-.04c-.75-.18-1.35-.48-2.33-.98-.8-.41-1.9-.97-3.23-1.56-.52-.23-1.49-.56-2.56-.92-2.42-.82-5.2-1.76-6.4-2.94-.16-.16-.29-.33-.4-.51-1.06-1.63-1.99-5.46-2.93-9.39-.62-2.57-1.24-5.18-1.78-6.86l-6.43.02h0ZM102.43,54.28c6.18.66,11.71,3.44,15.88,7.6,4.79,4.79,7.75,11.4,7.75,18.71s-2.96,13.93-7.75,18.71c-4.16,4.16-9.7,6.94-15.88,7.6v-52.63ZM41.16,148.76c0-4.29,1.73-8.16,4.54-10.97,2.81-2.8,6.69-4.54,10.97-4.54s8.16,1.74,10.97,4.54c2.17,2.17,3.71,4.99,4.29,8.14h24.82v-17.06h-25.59c-1.57,0-2.84-1.27-2.84-2.84s1.27-2.84,2.84-2.84h25.59v-13.28s0-.07,0-.07v-3.73h-47.6s0,19.91,0,19.91c0,1.56-1.27,2.84-2.84,2.84h-15.54c-.59,3.14-2.12,5.95-4.29,8.13h0s0,.02,0,.02c-2.8,2.8-6.69,4.54-10.97,4.54s-8.17-1.74-10.97-4.54c-.06-.05-.11-.11-.17-.18-2.71-2.79-4.38-6.6-4.38-10.8s1.74-8.15,4.55-10.97h0s0-.02,0-.02c2.8-2.8,6.69-4.54,10.97-4.54s8.17,1.74,10.97,4.54c.06.06.11.12.17.18,2.09,2.15,3.56,4.89,4.12,7.96h12.7v-19.92c0-1.56,1.27-2.84,2.84-2.84h50.42v-15.45h-54.55c-.58,3.14-2.12,5.96-4.28,8.13-2.81,2.81-6.69,4.54-10.97,4.54s-8.17-1.74-10.98-4.54c-2.8-2.8-4.54-6.69-4.54-10.97s1.74-8.16,4.54-10.97c2.81-2.8,6.69-4.54,10.98-4.54s8.16,1.74,10.97,4.54c2.17,2.17,3.7,4.99,4.28,8.14h54.55v-15.45h-50.42c-1.57,0-2.84-1.27-2.84-2.84v-19.92h-12.7c-.57,3.07-2.04,5.81-4.12,7.96-.05.06-.11.12-.17.18-2.8,2.8-6.69,4.54-10.97,4.54s-8.17-1.74-10.97-4.54h0s0-.02,0-.02C1.74,46.4,0,42.53,0,38.25s1.67-8,4.38-10.8c.05-.06.11-.12.17-.18,2.8-2.8,6.69-4.54,10.97-4.54s8.17,1.74,10.97,4.54h0s0,.02,0,.02c2.17,2.17,3.7,4.98,4.29,8.13h15.54c1.56,0,2.84,1.27,2.84,2.84v19.93h47.59v-6.8s0-.07,0-.07v-.07s0-10.13,0-10.13h-25.59c-1.57,0-2.84-1.27-2.84-2.84s1.27-2.84,2.84-2.84h25.59v-17.06h-24.82c-.59,3.13-2.12,5.94-4.29,8.12h0c-2.81,2.82-6.69,4.55-10.97,4.55s-8.16-1.74-10.97-4.54c-2.81-2.8-4.54-6.69-4.54-10.97s1.73-8.16,4.54-10.97h0s0,0,0,0c2.81-2.8,6.69-4.54,10.97-4.54s8,1.67,10.8,4.38c.06.05.12.11.18.17,2.17,2.17,3.71,4.98,4.29,8.14h24.82V4.14c0-1.56,1.27-2.84,2.84-2.84h11.16c.99,0,1.95.54,2.47,1.46,1.02,1.82,1.99,5.85,2.92,9.77.79,3.29,1.56,6.5,1.93,7.28.52.3,2.42.94,4.09,1.51,1.19.4,2.3.78,3.07,1.12,1.73.77,2.76,1.29,3.5,1.67l1.04.53h.03c.45.11-.3-.18.07-.39l.23-.13,1.03-.6s.1-.06.15-.09c3.5-2.05,11.31-6.61,13.66-7.43,1-.37,2.18-.16,2.98.64l15.65,15.61h0c.84.83,1.1,2.15.54,3.27-1.29,2.58-2.52,4.74-3.77,6.93-.69,1.22-1.4,2.45-2.38,4.26h0c-.62,1.15-1.05,1.91-1.4,2.51-.61,1.06-.9,1.42-.9,1.49s.2.32.59,1.06c.44.87,1.04,2.02,1.66,3.43,1.15,2.59,1.69,4.41,2.06,5.69.25.87.33,1.13.72,1.24.72.19,2.1.55,3.67.96,4.76,1.23,11.4,2.95,13.07,3.81h0c.9.48,1.52,1.42,1.52,2.51l-.05,22.25c.03,1.03-.52,2.04-1.49,2.56-1.96,1.05-6.77,2.23-11.03,3.29-2.58.63-4.95,1.22-6.05,1.61-.02,0-.24.71-.62,1.94-.4,1.29-.91,2.92-1.79,4.9-.69,1.55-1.23,2.62-1.64,3.43h0s0,0,0,0c-.4.77-.61,1.03-.61,1.11,0,.04.31.47.95,1.56.36.61.81,1.35,1.49,2.57.25.43.78,1.32,1.39,2.35,1.77,2.96,4.16,6.97,4.79,9.08.3.97.07,2.07-.69,2.85l-15.49,15.53c-.7.8-1.82,1.17-2.91.86-1.86-.54-5.33-2.6-7.63-3.97-.31-.18-.54-.33-1.13-.67-1.66-.97-3.08-1.85-4.2-2.54-1.63-1-2.42-1.49-2.64-1.52-.05.02-.46.25-1.31.69-1.01.52-2.35,1.22-4.33,2.06h0s0,0,0,0c-.66.28-1.49.54-2.39.82l-.12.04c-1.32.4-2.82.86-3.31,1.19-.37.73-1.15,4-1.96,7.35-.94,3.91-1.91,7.92-2.89,9.73-.48.88-1.41,1.48-2.48,1.48l-10.9-.06c-.08,0-.17,0-.25,0-1.57,0-2.84-1.27-2.84-2.84v-5.45h-24.81c-.58,3.15-2.12,5.97-4.29,8.14-.05.06-.11.11-.18.17-2.79,2.71-6.6,4.38-10.8,4.38s-8.15-1.74-10.97-4.54h0s0,0,0,0c-2.8-2.81-4.53-6.7-4.53-10.98h0ZM19.99,75.17c-1.78,1.78-2.88,4.24-2.88,6.96s1.1,5.18,2.88,6.96c1.78,1.78,4.24,2.88,6.96,2.88s5.18-1.11,6.96-2.88c1.78-1.78,2.88-4.24,2.88-6.96s-1.1-5.18-2.88-6.96c-1.78-1.78-4.24-2.88-6.96-2.88s-5.18,1.1-6.96,2.88ZM5.68,38.25c0,2.72,1.1,5.18,2.88,6.97h0c1.78,1.77,4.24,2.87,6.96,2.87s5.18-1.1,6.96-2.88c.04-.04.09-.09.13-.12,1.7-1.77,2.75-4.18,2.75-6.84s-1.1-5.18-2.88-6.97h0c-1.78-1.78-4.24-2.88-6.96-2.88s-5.18,1.1-6.96,2.88c-.04.04-.09.09-.13.12-1.7,1.77-2.75,4.18-2.75,6.84ZM46.84,15.51c0,2.71,1.11,5.18,2.88,6.96,1.77,1.78,4.24,2.88,6.96,2.88s5.18-1.1,6.97-2.87c1.78-1.78,2.88-4.24,2.88-6.97s-1.11-5.18-2.88-6.96c-.04-.04-.08-.09-.12-.13-1.77-1.7-4.17-2.75-6.84-2.75s-5.18,1.1-6.97,2.88h0c-1.79,1.78-2.89,4.24-2.89,6.96h0ZM8.56,119.05c-1.78,1.78-2.88,4.24-2.88,6.97s1.05,5.07,2.75,6.84c.04.04.09.08.13.12,1.78,1.78,4.24,2.88,6.96,2.88s5.18-1.11,6.96-2.88h0c1.78-1.77,2.88-4.23,2.88-6.96s-1.05-5.07-2.75-6.84c-.04-.04-.09-.08-.13-.12-1.78-1.78-4.24-2.88-6.96-2.88s-5.18,1.1-6.96,2.88h0ZM49.72,141.8c-1.78,1.78-2.88,4.24-2.88,6.96s1.11,5.18,2.88,6.96h0c1.78,1.78,4.24,2.88,6.97,2.88s5.07-1.05,6.84-2.75c.04-.04.08-.09.12-.13,1.78-1.78,2.88-4.24,2.88-6.96s-1.11-5.18-2.88-6.96c-1.78-1.78-4.24-2.88-6.96-2.88s-5.18,1.1-6.96,2.88h0Z"/></g></svg>