<?xml version="1.0" encoding="UTF-8"?><svg id="Capa_2" xmlns="http://www.w3.org/2000/svg" viewBox="0 0 220.43 207.39"><defs><style>.cls-1{fill:#3c92cc;}.cls-2{fill:#a8aaae;}</style></defs><g id="Capa_1-2"><circle class="cls-1" cx="90.03" cy="10.03" r="7.59"/><circle class="cls-1" cx="33.65" cy="101.89" r="7.59"/><circle class="cls-1" cx="10.04" cy="114.79" r="7.59"/><circle class="cls-1" cx="62.32" cy="64.62" r="7.59"/><circle class="cls-1" cx="84.73" cy="106.58" r="7.59"/><circle class="cls-1" cx="47.16" cy="183.62" r="7.59"/><circle class="cls-1" cx="24.45" cy="191.22" r="7.59"/><path class="cls-2" d="M131.07,54.19c-2.17-2.96-4.81-6.26-5.23-10.03-.27-2.36.81-5.91,3.6-6.18s5.84,2.68,8.18,3.95c3.03,1.65,6.2,2.41,9.62,1.75,3.21-.62,6.13-2.48,8.11-5.06,2.01-2.63,2.38-5.6,3.05-8.74.62-2.94,2.3-4.7,5.29-2.87,3.19,1.95,3.64,6.71,4.07,10.05l6.63-.9c-.86-4.81-1.73-9.62-2.59-14.43-.67-3.72-6.87-2.89-6.63.9.5,7.74,1.97,16.98,10.19,20.2,3.73,1.46,7.52.64,11.11-.82,2.43-.99,7.07-3.77,9.69-1.88,3.04,2.19-1.01,8.22-1.88,10.61-1.33,3.65-1.38,7.61-.01,11.26,2.89,7.69,11,11.51,18.85,9.72,1.5-.34,2.39-1.81,2.48-3.25l.02-.39-.99,2.39-3.43-.05-.99-2.39c-.3,3.74-.6,7.48-.9,11.23l2.48-3.25c-8.31,2.11-18.05,5.66-19.85,15.26-.89,4.74,1.3,8.43,3.63,12.34.79,1.32,2.43,3.91,1.48,5.54s-3.75.24-4.91-.48c-3.71-2.32-6.61-5.28-11.22-5.6-3.77-.26-7.68,1.21-10.36,3.87-3.04,3.01-3.6,7.01-4.79,10.91-1.49,4.9-5.93,4.65-10.28,4.33l3.25,2.48c-.94-5.21-2.18-10.59-6.01-14.5-3.58-3.65-8.41-4.76-13.3-3.51-2.82.73-11.34,5.71-13.54,1.61-1.02-1.89.51-4.79,1.39-6.41,1.34-2.46,2.9-4.85,3.66-7.57,1.44-5.16-.55-10.06-5.21-12.68-3.35-1.88-9.37-2.03-11.77-5.24-3.39-4.55,7.49-7.2,9.95-8.28,4.23-1.86,7.4-5.13,9.04-9.46.89-2.34,1.27-4.94,1.03-7.44-.12-1.28-.35-2.56-.79-3.77-.24-.68-1.14-3.73-1.66-3.99-.27-.14-1.17.62-1.17.46,0,0,1.33.85,1.38.89.78.55,1.49,1.19,2.31,1.68,1.75,1.04,3.86,1.62,5.81.81-1.09-1.88-2.19-3.76-3.28-5.64-2.81,2.65-5.63,5.31-8.44,7.96,1.77,1.36,3.53,2.73,5.3,4.09,3.14-4.33,8.28-6.43,13.53-6.13l-1.7-6.29c-12.83,6.03-20.74,20.54-19.21,34.59,1.65,15.09,12.2,27.7,26.39,32.74,8.28,2.94,17.37,3.12,25.87,1.05,3.67-.89,2.93-6.77-.9-6.63-1.86.07-3.72.14-5.57.21.57,2.1,1.14,4.19,1.7,6.29,1.24-.92,2.48-1.84,3.72-2.77,2.89-2.15,1.35-7.26-2.6-6.17-2.52.7-5.03,1.39-7.55,2.09l1.79,6.51c15.24-5.52,27.17-17.67,32.34-33.05,1.03-3.06-3.54-5.96-5.64-3.28-1.19,1.52-2.38,3.03-3.56,4.55l5.76,2.39c.04-.77.08-1.55.12-2.32.21-4.14-5.28-4.12-6.63-.9-1.18,2.83-2.37,5.66-3.55,8.49,2.17.6,4.34,1.2,6.51,1.79,4.24-13.27.58-28.78-9.55-38.47-10.13-9.68-25.67-12.87-38.81-8.04l2.6,6.17c7.38-3.92,11.94-11.09,12.96-19.29l-6.29,1.7c1.7,2.67,3.39,5.34,5.09,8.02,2.09,3.29,6.93,1.14,6.17-2.6-.42-2.06-.85-4.13-1.27-6.19-1.65,1.27-3.3,2.54-4.96,3.81.81.55,4.11,2.6,2.77,3.66-1.39,1.1-4.2-1.81-5.06-2.58-1.09,1.88-2.19,3.76-3.28,5.64,9.94,2.59,19.23,6.74,27.81,12.41,2.15,1.42,5.11-.45,5.08-2.91-.02-1.4-.04-2.8-.06-4.2l-4.27,3.25c1.27.4,2.37,1.22,2.89,2.49l5.64-3.28c-.44-.49-1.01-1.49-.62-2.15.11-.19.61-.8.94-.45.95.97-4.65,2.55-5.04,2.65.87,2.06,1.73,4.11,2.6,6.17.5-.23,1.01-.45,1.51-.68l-4.96-2.02c1.06,3,2.12,5.99,3.17,8.99,1.18,3.35,6.98,3.14,6.63-.9-.24-2.7-.47-5.4-.71-8.1-.37-4.26-6.89-4.4-6.75,0,.23,7.2.55,15.06,4.6,21.3,3.53,5.44,9.66,9.56,16.35,8.77,4.35-.51,4.31-6.18,0-6.75-1.06-.14-2.13-3.74-2.64-4.6-.87-1.45-1.99-2.75-3.51-3.53-3-1.54-6.91-.74-8.54,2.34-1.06,2.01-.1,4.24,2.02,4.96,4,1.36,7.99,2.71,11.99,4.07v-6.51c-9.14,3.42-16.36,11.17-18.03,20.96-.86,5.06-.44,10.2,1.41,15,.16.42.32,1.12.59,1.48l.18.64,2.08-.86c.15-.39-1.29-2.87-1.48-3.34-1.19-2.89-2.38-5.77-3.57-8.66-.87-2.1-3.81-3.65-5.64-1.49-1.73,2.04-3.45,4.08-5.18,6.12-1.33,1.57-1.38,4.21.68,5.3,2.23,1.18,4.46,2.35,6.69,3.53.87-2.06,1.73-4.11,2.6-6.17-14.28-3.83-27.97,6.13-29.29,20.68h6.75c-.27-3.95-.54-7.9-.82-11.85-.21-3.05-4.72-4.96-6.29-1.7-1.37,2.85-2.74,5.7-4.11,8.55,2.1.57,4.19,1.14,6.29,1.7,0-3.1.02-6.2.03-9.29.01-4.35-6.61-4.34-6.75,0-.09,2.87-.18,5.75-.27,8.62,2.21-.3,4.42-.6,6.63-.9-.61-1.83-1.58-3.14-3.11-4.3-.6-.45-1.2-.81-1.84-1.2-.43-.24-.84-.5-1.25-.77-.72-.91-1.57-.64-2.54.81,3.16,2.02,7.12-2.88,4.09-5.3-3.69-2.94-7.95-4.76-12.72-4.88-2.46-.07-4.86.48-7.23,1.03-2.01.47-5.16,1.6-7.05.22-2.07-1.52-1.65-5.77,1.46-5.11,3.86.82,1.76,5.64-1.52,4.7l2.36,4.15c.64-2.95,1.28-5.9,1.91-8.85h-6.51c.37,1.03.75,2.05,1.12,3.08l6.17-2.6c-4.97-10.28-7.12-21.58-6.52-32.97.2-3.74-5.99-4.68-6.63-.9-.35,2.04-.7,4.28-1.75,6.1-.28.48-2.6,3.11-3.01,1.57l-6.17,2.6c.3.67.59,1.33.89,2,1.6,3.6,7.03.98,6.17-2.6-.24-.98.54-1.26,1.21-.6.5-1.88.99-3.76,1.49-5.64-.55.2-1.1.4-1.64.6-4.05,1.47-2.3,7.99,1.79,6.51.55-.2,1.1-.4,1.64-.6,2.32-.84,3.41-3.75,1.49-5.64-5.56-5.46-14.3-.33-12.49,7.16l6.17-2.6c-.3-.67-.59-1.33-.89-2-1.58-3.55-7.14-1-6.17,2.6,1.31,4.86,7.01,6.54,11.22,4.25s5.79-7.43,6.55-11.91c-2.21-.3-4.42-.6-6.63-.9-.67,12.6,1.95,25.03,7.44,36.37,1.65,3.41,7.48,1.01,6.17-2.6-.37-1.03-.75-2.05-1.12-3.08-1.05-2.89-5.75-3.51-6.51,0-.64,2.95-1.28,5.9-1.91,8.85-.39,1.8.52,3.62,2.36,4.15,6.85,1.96,14.33-4.79,11.78-11.87-2.26-6.26-11.24-8.34-15.72-3.27-4.51,5.1-1.82,13.92,4.61,15.86,4.02,1.21,7.96-.16,11.9-.96,4.05-.82,8.23-.05,11.51,2.56,1.36-1.77,2.73-3.53,4.09-5.3-3.58-2.29-8.1.84-8.08,4.89.01,1.98,1.1,3.7,2.54,4.99,1.04.94,3.92,1.86,4.37,3.2,1.19,3.58,6.5,2.99,6.63-.9.09-2.87.18-5.75.27-8.62h-6.75c0,3.1-.02,6.2-.03,9.29s4.79,4.81,6.29,1.7c1.37-2.85,2.74-5.7,4.11-8.55-2.1-.57-4.19-1.14-6.29-1.7.27,3.95.54,7.9.82,11.85.3,4.37,6.36,4.31,6.75,0,.93-10.24,10.98-16.8,20.75-14.18,3.62.97,6.06-4.34,2.6-6.17-2.23-1.18-4.46-2.35-6.69-3.53.23,1.77.46,3.53.68,5.3,1.73-2.04,3.45-4.08,5.18-6.12l-5.64-1.49c1.32,3.21,2.65,6.42,3.97,9.62.97,2.35,1.81,5.04,4.11,6.44,2.1,1.29,4.86,1.03,6.57-.83,1.9-2.06,1.8-4.88.88-7.35-2.1-5.63-2.76-11.4-.33-17.09,2.22-5.19,6.66-9.33,11.93-11.3,3.12-1.17,3.28-5.39,0-6.51-4-1.36-7.99-2.71-11.99-4.07.67,1.65,1.34,3.3,2.02,4.96-.35.66-.6-.31-.2.39.22.38.55.75.78,1.15.68,1.18,1.1,2.47,1.86,3.6,1.6,2.4,3.6,3.61,6.42,3.98v-6.75c-12.46,1.47-13.92-14.64-14.2-23.32h-6.75c.24,2.7.47,5.4.71,8.1l6.63-.9c-1.06-3-2.12-5.99-3.17-8.99-.78-2.21-2.88-2.95-4.96-2.02-.5.23-1.01.45-1.51.68-3.62,1.62-.96,6.98,2.6,6.17,3.96-.91,8.21-2.55,9.57-6.81,1.13-3.53-.46-7.42-4.07-8.65-3.28-1.12-7.14.06-8.93,3.11-2.06,3.49-.97,7.7,1.59,10.56,2.15,2.4,6.93-.13,5.64-3.28-1.46-3.59-3.87-6.02-7.6-7.2-2.08-.66-4.3,1.12-4.27,3.25.02,1.4.04,2.8.06,4.2,1.69-.97,3.38-1.94,5.08-2.91-9.02-5.95-18.96-10.37-29.42-13.09-3.13-.81-5.87,3.31-3.28,5.64,4.01,3.61,10.26,7.12,14.96,2.38,4.97-5.02-.1-11.1-4.49-14.06-2.62-1.77-5.5,1.14-4.96,3.81.42,2.06.85,4.13,1.27,6.19l6.17-2.6c-1.7-2.67-3.39-5.34-5.09-8.02-1.93-3.03-5.89-1.5-6.29,1.7-.73,5.83-4.51,10.75-9.62,13.46-3.32,1.76-1.03,7.5,2.6,6.17,10.9-4.01,23.74-1.82,32.24,6.31s11.35,20.83,7.81,31.9c-1.36,4.25,4.88,5.67,6.51,1.79,1.18-2.83,2.37-5.66,3.55-8.49l-6.63-.9c-.04.77-.08,1.55-.12,2.32-.14,2.73,3.94,4.71,5.76,2.39,1.19-1.52,2.38-3.03,3.56-4.55-1.88-1.09-3.76-2.19-5.64-3.28-4.37,13-14.72,23.66-27.63,28.33-4.02,1.46-2.46,7.68,1.79,6.51,2.52-.7,5.03-1.39,7.55-2.09-.87-2.06-1.73-4.11-2.6-6.17-1.24.92-2.48,1.84-3.72,2.77-2.46,1.83-1.96,6.42,1.7,6.29,1.86-.07,3.72-.14,5.57-.21-.3-2.21-.6-4.42-.9-6.63-16.11,3.92-33.55-2.63-40.95-17.93-6.79-14.04-1.14-31.42,13.09-38.11,3.25-1.53,1.35-6.11-1.7-6.29-7.75-.45-14.85,3.25-19.35,9.47-2.32,3.2,2.61,6.62,5.3,4.09,2.81-2.65,5.63-5.31,8.44-7.96,2.31-2.18-.08-6.96-3.28-5.64-1.01.42-.13.14-.09.16-.33-.13-.69-.4-.98-.59-.64-.43-1.22-.93-1.85-1.38-1.69-1.2-3.67-2.11-5.79-1.65s-3.88,2.29-4.39,4.47c-.68,2.91.91,5.18,1.83,7.78,1.45,4.11-.24,9.07-3.86,11.46-4.83,3.2-10.81,3.14-14.45,8.27-3.24,4.56-1.92,10.16,2.47,13.36,1.81,1.31,3.91,2.18,6.03,2.85s4.72,1.14,6.46,2.66c2.22,1.94.96,4.83-.16,7.03-1.39,2.71-3.12,5.22-3.92,8.2-1.4,5.24.6,10.9,6.13,12.55,2.54.76,5.35.57,7.89-.07,3.12-.78,5.99-2.61,9.21-2.97,7.09-.8,8.7,8.48,9.62,13.56.28,1.52,1.86,2.38,3.25,2.48,4.42.32,9.31.28,12.87-2.75,3.33-2.83,3.89-6.96,5.08-10.92,1.03-3.42,3.87-6.03,7.66-5.41,4.3.7,7.18,5.21,11.46,6.36s8.73-.17,10.61-4.31c1.77-3.92.29-8.22-1.78-11.69-2.38-4-4.31-7.39-.97-11.5,3.15-3.87,8.56-5.02,13.15-6.19,1.53-.39,2.36-1.78,2.48-3.25.19-2.38.38-4.76.57-7.14.17-2.15.89-4.68-.66-6.47-2.56-2.95-6.91-.7-7.12,2.83l2.48-3.25c-7.02,1.6-12.99-4.86-10.87-11.74,1.12-3.61,3.28-6.69,3.44-10.59.13-3.13-1.07-6.21-3.62-8.1-5.75-4.25-12.05-.32-17.77,1.54-8.64,2.81-10.18-7.54-10.58-13.69l-6.63.9c.86,4.81,1.73,9.62,2.59,14.43.66,3.7,7.11,2.89,6.63-.9-.6-4.7-1.27-9.69-4.49-13.42-2.63-3.05-7.1-4.9-11.11-3.89-4.39,1.11-6.37,4.96-7.16,9.09-.74,3.84-1.66,7.67-6.22,8.3-3.98.55-7.36-3.13-10.74-4.67-3.88-1.76-8.29-1.69-11.59,1.24-7.77,6.89-2.92,17.09,2.05,23.89,2.54,3.47,8.4.11,5.83-3.41h0Z"/><path class="cls-2" d="M189.87,33.38c-.04.43-.09.87-.15,1.3l.12-.9c-.25,1.84-.64,3.65-1.18,5.42-.27.87-.56,1.73-.9,2.57-.08.2-.17.4-.25.61.33-.88.09-.21,0,0-.21.46-.43.92-.65,1.38-.79,1.58-.47,3.73,1.21,4.62,1.53.81,3.77.48,4.62-1.21,2.17-4.35,3.46-8.94,3.94-13.78.08-.81-.43-1.83-.99-2.39-.59-.59-1.55-1.03-2.39-.99-1.98.09-3.19,1.49-3.37,3.37h0Z"/><path class="cls-2" d="M189.82,91.07c-6.86,4.87-14.44,8.49-22.59,10.6-4.06,1.05-8.2,1.73-12.38,1.99-3.94.24-8.57.46-12.06-1.74-3.3-2.09-4.78-6.12-6.61-9.38-1.95-3.48-4.29-6.74-6.9-9.75s-5.57-5.74-8.75-8.17c-2.62-2-7.9-4.15-7.68-8.03l-2.48,3.25.51-.11-2.6-.34-.49-.52c1.97,3.87,7.79.46,5.83-3.41-1.01-1.99-2.95-2.59-5.04-2.13-1.5.33-2.39,1.82-2.48,3.25-.27,4.65,2.75,7.99,6.3,10.52,3.77,2.7,7.37,5.33,10.56,8.73,3.19,3.4,5.82,7.2,8.04,11.29s4.33,8.13,8.38,10.62c7.69,4.73,19.01,2.85,27.3,1,9.52-2.12,18.59-6.21,26.54-11.85,3.51-2.49.15-8.35-3.41-5.83h0Z"/><path d="M218.85,161.85c-1.83-3.77-5.03-6.61-9.01-8-3.99-1.38-8.26-1.13-12.02.7l-30.67,14.87c.12-4.89-2.04-9.71-6.13-12.87l-33.89-26.16c-2.52-1.93-5.28-2.86-8.44-2.86h-37.15v-2.45c0-1.66-1.35-3.01-3.01-3.01h-41.86v-10.6c4.08-1.28,7.04-5.1,7.04-9.59,0-5.54-4.52-10.04-10.06-10.04s-10.04,4.51-10.04,10.04c0,4.49,2.96,8.29,7.03,9.59v13.62c0,1.66,1.35,3.01,3.01,3.01h41.86v15.03H13.06v-18.76c4.07-1.28,7.03-5.1,7.03-9.59,0-5.54-4.51-10.04-10.04-10.04-5.54,0-10.04,4.52-10.04,10.05,0,4.49,2.96,8.29,7.03,9.59v21.77c0,1.66,1.35,3.01,3.01,3.01h65.46v7.69H24.45c-1.66,0-3.01,1.35-3.01,3.01v21.77c-4.07,1.28-7.03,5.1-7.03,9.58,0,5.54,4.51,10.04,10.04,10.04s10.04-4.51,10.04-10.04c0-4.49-2.96-8.29-7.03-9.58v-18.77h48.04v17.33h-18.76c-1.28-4.07-5.1-7.03-9.59-7.03-5.54,0-10.04,4.51-10.04,10.04s4.51,10.04,10.04,10.04c4.49,0,8.3-2.96,9.59-7.03h21.77c1.66,0,3.01-1.35,3.01-3.01v-1.5h9.62c5.34,2.79,10.22,5.38,14.53,7.67,22.82,12.11,34.14,18.01,45.51,18.01,10.79,0,21.65-5.31,42.4-15.65,5.25-2.61,11.19-5.57,17.94-8.85,3.78-1.84,6.62-5.03,8-9.01,1.39-3.98,1.14-8.25-.69-12.03h0ZM33.64,105.9c-2.21,0-4.02-1.8-4.02-4.02s1.8-4.02,4.02-4.02,4.02,1.8,4.02,4.02-1.8,4.02-4.02,4.02ZM10.04,118.81c-2.21,0-4.02-1.8-4.02-4.02s1.8-4.02,4.02-4.02,4.02,1.8,4.02,4.02-1.8,4.02-4.02,4.02ZM28.47,191.22c0,2.21-1.8,4.02-4.02,4.02s-4.02-1.8-4.02-4.02,1.8-4.02,4.02-4.02,4.02,1.8,4.02,4.02ZM51.18,183.34c-.06,2.16-1.84,3.89-4.02,3.89s-4.02-1.8-4.02-4.02,1.8-4.02,4.02-4.02,3.95,1.74,4.02,3.89c0,.04,0,.08,0,.12,0,.05,0,.09,0,.12h0ZM208.92,177.48c-6.78,3.29-12.74,6.26-18,8.87-20.36,10.14-30.58,15.24-40.47,14.96-9.94-.27-20.63-5.95-41.94-17.26-4.5-2.39-9.6-5.1-15.23-8.03-.43-.23-.9-.34-1.4-.34h-10.36v-42.13h37.16c1.82,0,3.33.52,4.77,1.62l33.88,26.16c3.47,2.67,4.68,7.29,3.09,11.29-.06.15-.13.3-.19.45-.04.09-.08.18-.13.27-.29.58-.62,1.12-1,1.62-3.28,4.24-9.39,5.03-13.64,1.76l-24.03-18.54c-1.32-1.02-3.21-.77-4.23.54-1.02,1.32-.77,3.21.54,4.23l24.03,18.54c2.78,2.14,6.12,3.27,9.58,3.27.69,0,1.37-.04,2.06-.13,4.18-.54,7.9-2.67,10.45-5.97.34-.44.66-.91.96-1.4l35.64-17.27c2.32-1.12,4.96-1.28,7.42-.43,2.47.85,4.44,2.6,5.57,4.93,2.32,4.83.3,10.66-4.52,13h0ZM62.32,74.66c4.49,0,8.29-2.96,9.58-7.03h31.56v15.75c0,1.41.98,2.63,2.35,2.94l13.73,3.11c.45,1.23.95,2.45,1.51,3.64l-6.62,10.51h-20.12c-1.28-4.07-5.1-7.03-9.58-7.03-5.54,0-10.04,4.51-10.04,10.04s4.51,10.04,10.04,10.04c4.49,0,8.29-2.96,9.58-7.03h20.53l12.37,12.38c.99.99,2.55,1.17,3.74.42l11.92-7.52c1.2.56,2.42,1.06,3.65,1.51l3.11,13.74c.31,1.37,1.53,2.35,2.94,2.35h18.75c1.41,0,2.63-.98,2.94-2.35l3.11-13.74c1.23-.45,2.45-.95,3.65-1.51l11.91,7.52c1.19.76,2.74.58,3.74-.42l13.25-13.27c.99-.99,1.17-2.55.41-3.73l-7.52-11.91c.56-1.19,1.06-2.41,1.52-3.65l13.73-3.11c1.37-.31,2.35-1.53,2.35-2.94v-18.76c0-1.41-.98-2.63-2.35-2.94l-13.73-3.11c-.45-1.24-.96-2.46-1.52-3.65l7.52-11.91c.76-1.19.58-2.74-.41-3.73l-13.25-13.27c-.99-1-2.55-1.17-3.74-.42l-11.92,7.52c-1.2-.56-2.42-1.06-3.65-1.51l-3.11-13.74c-.31-1.37-1.53-2.35-2.94-2.35h-18.75c-1.41,0-2.63.98-2.94,2.36l-3.11,13.74c-1.24.45-2.46.96-3.66,1.51l-11.91-7.52c-1.19-.76-2.75-.58-3.74.42l-12.37,12.38h-21.81v-18.77c4.07-1.28,7.03-5.1,7.03-9.58,0-5.54-4.51-10.04-10.04-10.04s-10.04,4.51-10.04,10.04c0,4.49,2.96,8.29,7.03,9.58v21.78c0,1.66,1.35,3.01,3.01,3.01h24.41l6.62,10.51c-.55,1.19-1.06,2.41-1.51,3.64l-13.41,3.03h-34.21c-1.28-4.07-5.1-7.03-9.58-7.03-5.54,0-10.04,4.51-10.04,10.04,0,5.54,4.5,10.05,10.03,10.05h0ZM84.73,110.59c-2.21,0-4.02-1.8-4.02-4.02s1.8-4.02,4.02-4.02,4.02,1.8,4.02,4.02-1.8,4.02-4.02,4.02ZM90.03,14.05c-2.21,0-4.02-1.8-4.02-4.02s1.8-4.02,4.02-4.02,4.02,1.8,4.02,4.02-1.8,4.02-4.02,4.02ZM109.5,67.02l13.03-2.94c1.05-.24,1.88-1,2.21-2.02.64-2.02,1.47-4.02,2.46-5.93.49-.95.44-2.08-.13-2.99l-7.13-11.3,9.85-9.86,11.3,7.13c.9.57,2.04.62,2.99.13,1.9-.98,3.9-1.81,5.94-2.46,1.02-.33,1.79-1.17,2.02-2.21l2.94-13.04h13.93l2.94,13.04c.24,1.05,1,1.88,2.02,2.21,2.01.64,4.02,1.47,5.95,2.46.95.48,2.08.43,2.98-.13l11.3-7.13,9.85,9.86-7.13,11.3c-.57.9-.62,2.05-.12,3,.98,1.89,1.81,3.87,2.46,5.92.33,1.02,1.17,1.79,2.21,2.02l13.03,2.94v13.94l-13.03,2.94c-1.05.24-1.88,1-2.21,2.02-.65,2.04-1.48,4.03-2.46,5.92-.49.95-.45,2.09.12,3l7.13,11.3-9.85,9.86-11.3-7.13c-.9-.57-2.04-.62-2.98-.13-1.93.99-3.94,1.82-5.95,2.46-1.02.33-1.79,1.17-2.02,2.21l-2.94,13.04h-13.93l-2.94-13.04c-.24-1.05-1-1.88-2.02-2.21-2.01-.64-4.02-1.47-5.95-2.46-.95-.48-2.08-.43-2.98.13l-11.3,7.13-9.85-9.86,7.13-11.3c.57-.9.62-2.04.13-2.99-.98-1.92-1.81-3.91-2.46-5.93-.33-1.02-1.17-1.79-2.21-2.02l-13.03-2.94v-13.96ZM62.32,60.6c2.21,0,4.02,1.8,4.02,4.02s-1.8,4.02-4.02,4.02-4.02-1.8-4.02-4.02,1.8-4.02,4.02-4.02ZM161.94,104.56c16.85,0,30.57-13.72,30.57-30.57s-13.72-30.56-30.57-30.56-30.57,13.71-30.57,30.56,13.72,30.57,30.57,30.57ZM161.94,49.46c13.53,0,24.54,11,24.54,24.53s-11.01,24.54-24.54,24.54-24.54-11.01-24.54-24.54,11.01-24.53,24.54-24.53Z"/></g></svg>