<?xml version="1.0" encoding="UTF-8"?><svg id="Capa_2" xmlns="http://www.w3.org/2000/svg" viewBox="0 0 191.46 189.05"><defs><style>.cls-1{fill:#202943;stroke-width:0px;}</style></defs><g id="Capa_1-2"><path class="cls-1" d="M85.58,98.8h-23.45c-1.15,0-2.08-.93-2.08-2.08s.93-2.08,2.08-2.08h23.45c1.15,0,2.08.93,2.08,2.08s-.93,2.08-2.08,2.08ZM30.11,98.8h14.42c1.15,0,2.08-.93,2.08-2.08s-.93-2.08-2.08-2.08h-14.42c-14.31,0-25.95-11.64-25.95-25.95s11.64-25.95,25.95-25.95c.48,0,.97.02,1.45.04.58.03,1.15-.18,1.56-.58.41-.41.65-.97.63-1.55,0-.31-.02-.61-.02-.93,0-19.6,15.95-35.56,35.56-35.56,14.34,0,27.21,8.54,32.78,21.77.45,1.06,1.67,1.56,2.73,1.11.3-.13.56-.33.76-.56h0c5-5.75,12.25-9.05,19.87-9.05,13.74,0,25.26,10.72,26.25,24.41,0,.14.03.28.07.42.31,1.11,1.46,1.75,2.57,1.44,2.27-.64,4.63-.97,7.02-.97,14.31,0,25.95,11.64,25.95,25.95s-11.64,25.95-25.95,25.95h-17.13c-1.15,0-2.08.93-2.08,2.08s.93,2.08,2.08,2.08h17.13c16.6,0,30.11-13.52,30.11-30.12s-13.51-30.12-30.12-30.12c-1.95,0-3.88.19-5.78.56-2.24-14.69-15.02-25.87-30.12-25.87-7.78,0-15.21,2.98-20.84,8.24C97.82,8.34,84.28,0,69.3,0,47.78,0,30.2,17.2,29.6,38.57c-16.37.28-29.6,13.68-29.6,30.12s13.51,30.12,30.12,30.12h0ZM126.63,94.64h-23.45c-1.15,0-2.08.93-2.08,2.08,0,1.15.93,2.08,2.08,2.08h23.45c1.15,0,2.08-.93,2.08-2.08s-.93-2.08-2.08-2.08ZM58,126.81v49.54c0,7.24-11.59,12.7-26.96,12.7s-26.96-5.46-26.96-12.7v-49.54c0-7.17,11.38-12.6,26.56-12.69l20.62-8.21v-27.54c-5.12-.97-9.01-5.49-9.01-10.89,0-6.11,4.97-11.09,11.09-11.09s11.09,4.97,11.09,11.09c0,5.4-3.88,9.91-9.01,10.89v28.94c0,.85-.52,1.62-1.31,1.93l-13.94,5.55c10.6,1.69,17.84,6.29,17.84,12.01h0ZM53.33,74.41c3.82,0,6.92-3.1,6.92-6.92s-3.1-6.92-6.92-6.92-6.92,3.1-6.92,6.92,3.11,6.92,6.92,6.92ZM53.85,176.35v-9.56c-4.7,3.5-12.97,5.74-22.81,5.74s-18.11-2.23-22.81-5.74v9.56c0,4.03,9.75,8.54,22.81,8.54s22.81-4.51,22.81-8.54ZM53.85,159.84v-9.56c-4.7,3.5-12.97,5.74-22.81,5.74s-18.11-2.23-22.81-5.74v9.56c0,4.03,9.75,8.54,22.81,8.54s22.81-4.51,22.81-8.54ZM53.85,143.32v-9.56c-4.7,3.5-12.97,5.74-22.81,5.74s-18.11-2.23-22.81-5.74v9.56c0,4.03,9.75,8.54,22.81,8.54s22.81-4.51,22.81-8.54ZM53.85,126.81c0-4.03-9.75-8.54-22.81-8.54s-22.81,4.51-22.81,8.54,9.75,8.54,22.81,8.54,22.81-4.51,22.81-8.54ZM22.95,144.25c0,2.43-1.98,4.42-4.42,4.42s-4.42-1.98-4.42-4.42,1.98-4.42,4.42-4.42,4.42,1.98,4.42,4.42ZM18.78,144.25c0-.14-.12-.26-.26-.26s-.26.12-.26.26.12.26.26.26c.14,0,.26-.12.26-.26ZM22.95,160.76c0,2.43-1.98,4.42-4.42,4.42s-4.42-1.98-4.42-4.42,1.98-4.42,4.42-4.42,4.42,1.99,4.42,4.42ZM18.78,160.76c0-.14-.12-.26-.26-.26s-.26.12-.26.26.12.26.26.26c.14,0,.26-.12.26-.26ZM22.95,177.28c0,2.43-1.98,4.42-4.42,4.42s-4.42-1.98-4.42-4.42,1.98-4.42,4.42-4.42,4.42,1.99,4.42,4.42ZM18.78,177.28c0-.14-.12-.26-.26-.26s-.26.12-.26.26.12.26.26.26c.14,0,.26-.12.26-.26ZM121.34,118.97v49.54c0,7.24-11.59,12.7-26.96,12.7s-26.96-5.46-26.96-12.7v-49.54c0-6.91,10.55-12.19,24.87-12.66v-40.13c-5.11-.97-9-5.49-9-10.89,0-6.11,4.97-11.09,11.09-11.09s11.09,4.97,11.09,11.09c0,5.4-3.88,9.91-9.01,10.89v40.13c14.32.46,24.88,5.75,24.88,12.66h0ZM94.38,62.21c3.82,0,6.92-3.1,6.92-6.92s-3.1-6.92-6.92-6.92-6.92,3.1-6.92,6.92,3.1,6.92,6.92,6.92ZM117.18,168.51v-9.56c-4.7,3.5-12.97,5.74-22.81,5.74s-18.11-2.23-22.81-5.74v9.56c0,4.03,9.75,8.54,22.81,8.54s22.81-4.51,22.81-8.54ZM117.18,152v-9.56c-4.7,3.5-12.97,5.74-22.81,5.74s-18.11-2.23-22.81-5.74v9.56c0,4.03,9.75,8.54,22.81,8.54s22.81-4.51,22.81-8.54ZM117.18,135.48v-9.56c-4.7,3.5-12.97,5.74-22.81,5.74s-18.11-2.23-22.81-5.74v9.56c0,4.03,9.75,8.54,22.81,8.54s22.81-4.51,22.81-8.54ZM117.18,118.97c0-4.03-9.75-8.54-22.81-8.54s-22.81,4.51-22.81,8.54,9.75,8.54,22.81,8.54,22.81-4.51,22.81-8.54ZM86.29,136.41c0,2.43-1.98,4.42-4.42,4.42s-4.42-1.98-4.42-4.42,1.98-4.42,4.42-4.42,4.42,1.98,4.42,4.42ZM82.13,136.41c0-.14-.12-.26-.26-.26s-.26.12-.26.26.12.26.26.26c.14,0,.26-.12.26-.26ZM86.29,152.92c0,2.43-1.98,4.42-4.42,4.42s-4.42-1.98-4.42-4.42,1.98-4.42,4.42-4.42,4.42,1.98,4.42,4.42ZM82.13,152.92c0-.14-.12-.26-.26-.26s-.26.12-.26.26.12.26.26.26c.14,0,.26-.12.26-.26ZM86.29,169.44c0,2.43-1.98,4.42-4.42,4.42s-4.42-1.98-4.42-4.42,1.98-4.42,4.42-4.42,4.42,1.99,4.42,4.42ZM82.13,169.44c0-.14-.12-.26-.26-.26s-.26.12-.26.26.12.26.26.26.26-.12.26-.26ZM184.69,126.81v49.54c0,7.24-11.59,12.7-26.96,12.7s-26.96-5.46-26.96-12.7v-49.54c0-5.72,7.23-10.32,17.85-12.01l-13.94-5.55c-.79-.31-1.31-1.08-1.31-1.93v-28.95c-5.13-.97-9.01-5.49-9.01-10.89,0-6.11,4.97-11.09,11.09-11.09s11.09,4.97,11.09,11.09c0,5.4-3.88,9.91-9.01,10.89v27.54l20.62,8.21c15.17.1,26.56,5.51,26.56,12.69h0ZM135.42,74.42c3.82,0,6.92-3.1,6.92-6.92s-3.1-6.92-6.92-6.92-6.92,3.1-6.92,6.92,3.1,6.92,6.92,6.92ZM180.52,176.35v-9.56c-4.7,3.5-12.97,5.74-22.81,5.74s-18.11-2.23-22.81-5.74v9.56c0,4.03,9.75,8.54,22.81,8.54s22.81-4.51,22.81-8.54ZM180.52,159.84v-9.56c-4.7,3.5-12.97,5.74-22.81,5.74s-18.11-2.23-22.81-5.74v9.56c0,4.03,9.75,8.54,22.81,8.54s22.81-4.51,22.81-8.54ZM180.52,143.33v-9.56c-4.7,3.5-12.97,5.74-22.81,5.74s-18.11-2.23-22.81-5.74v9.56c0,4.03,9.75,8.54,22.81,8.54s22.81-4.51,22.81-8.54ZM180.52,126.81c0-4.03-9.75-8.54-22.81-8.54s-22.81,4.51-22.81,8.54,9.75,8.54,22.81,8.54,22.81-4.51,22.81-8.54ZM149.62,144.25c0,2.43-1.98,4.42-4.42,4.42s-4.42-1.98-4.42-4.42,1.98-4.42,4.42-4.42,4.42,1.98,4.42,4.42ZM145.46,144.25c0-.14-.12-.26-.26-.26s-.26.12-.26.26.12.26.26.26c.14,0,.26-.12.26-.26ZM149.62,160.76c0,2.43-1.98,4.42-4.42,4.42s-4.42-1.98-4.42-4.42,1.98-4.42,4.42-4.42,4.42,1.99,4.42,4.42ZM145.46,160.76c0-.14-.12-.26-.26-.26s-.26.12-.26.26.12.26.26.26c.14,0,.26-.12.26-.26ZM149.62,177.28c0,2.43-1.98,4.42-4.42,4.42s-4.42-1.98-4.42-4.42,1.98-4.42,4.42-4.42,4.42,1.99,4.42,4.42ZM145.46,177.28c0-.14-.12-.26-.26-.26s-.26.12-.26.26.12.26.26.26c.14,0,.26-.12.26-.26Z"/></g></svg>