<?xml version="1.0" encoding="UTF-8"?><svg id="Capa_2" xmlns="http://www.w3.org/2000/svg" viewBox="0 0 184.82 183.87"><defs><style>.cls-1{fill:#fff;stroke-width:0px;}</style></defs><g id="Capa_1-2"><path class="cls-1" d="M182.36,141.91c1.36,0,2.46-1.1,2.46-2.46v-27.46c0-1.36-1.1-2.46-2.46-2.46h-18.81v-31.29c4-1.1,6.99-4.71,6.99-9.07s-2.96-8-6.99-9.07v-26.81c4-1.1,6.99-4.71,6.99-9.07,0-5.21-4.24-9.45-9.45-9.45-4.36,0-8,2.96-9.07,6.99h-17.51c-.92-1.33-1.9-2.61-2.93-3.85-1.81-2.1-3.79-4.09-5.93-5.93C116.52,4.27,104.88,0,92.88,0s-23.64,4.27-32.77,12.03c-2.13,1.81-4.12,3.79-5.93,5.93-1.04,1.24-2.01,2.52-2.93,3.85h-17.54c-1.1-4-4.71-6.99-9.07-6.99-5.21,0-9.45,4.24-9.45,9.45,0,4.36,2.96,8,6.99,9.07v26.81c-4,1.1-6.99,4.71-6.99,9.07s2.96,8,6.99,9.07v20.74H5.48c-3.02,0-5.48,2.46-5.48,5.48v58.69c0,3.02,2.46,5.48,5.48,5.48h15.35v9.81c0,2.96,2.4,5.39,5.39,5.39h42.81c2.96,0,5.36-2.4,5.36-5.39v-56.68c0-2.9-2.34-5.24-5.24-5.24h-15.85l-10.58-10.61c-2.22-2.25-4.36-4.38-6.25-6.25h0c-.21-.21-.44-.36-.68-.47-.06-.03-.15-.06-.24-.09-.21-.09-.41-.12-.65-.12-.06,0-.09-.03-.15-.03h-7.7v-20.74c4-1.1,6.99-4.71,6.99-9.07s-2.96-8-6.99-9.07v-26.81c3.23-.86,5.75-3.41,6.64-6.64h14.58c-3.97,7.35-6.13,15.58-6.13,24.06,0,27.97,22.75,50.75,50.75,50.75s50.75-22.75,50.75-50.75c0-8.47-2.16-16.71-6.13-24.06h14.55c.86,3.23,3.41,5.75,6.64,6.64v26.81c-4.06,1.07-7.02,4.71-7.02,9.07s2.96,8,6.99,9.07v31.32h-67.22c-1.36,0-2.46,1.1-2.46,2.46v27.46c0,1.36,1.1,2.46,2.46,2.46h14.7v9.27h-14.7c-1.36,0-2.46,1.1-2.46,2.46v27.46c0,1.36,1.1,2.46,2.46,2.46h90.93c1.36,0,2.46-1.1,2.46-2.46v-27.46c0-1.36-1.1-2.46-2.46-2.46h-14.7v-9.27h14.7v-.03ZM69.48,121.8v56.65c0,.27-.21.47-.44.47H26.22c-.27,0-.47-.21-.47-.47v-9.81h24.24c3.02,0,5.48-2.46,5.48-5.48v-41.72h13.72c.18,0,.3.18.3.36ZM47.08,117.24h-9.27c-.21,0-.3-.09-.41-.18-.09-.06-.18-.21-.18-.41v-9.33c.68.68,1.36,1.36,2.04,2.07l7.82,7.85ZM34.34,120.88c.95.8,2.19,1.24,3.47,1.24h12.71v41.03c0,.33-.27.59-.56.59H5.51c-.33,0-.56-.27-.56-.59v-58.69c0-.33.27-.56.56-.56h26.84v12.77c-.03,1.66.74,3.26,1.99,4.21ZM29.15,69.18c0,2.52-2.04,4.53-4.53,4.53s-4.53-2.04-4.53-4.53,2.04-4.53,4.53-4.53,4.53,2.01,4.53,4.53ZM24.59,28.74c-2.52,0-4.53-2.04-4.53-4.53s2.04-4.53,4.53-4.53,4.53,2.04,4.53,4.53-2.01,4.53-4.53,4.53ZM138.6,48.26h-20.32c-.21-9.04-1.6-17.81-4.03-25.27,3.44-1.6,6.64-3.58,9.66-5.93,1.39,1.27,2.73,2.61,3.94,4.03,6.49,7.61,10.22,17.18,10.75,27.17ZM92.88,96.56c-5.93,0-11.38-5.98-15.17-15.35,4.83-1.69,9.95-2.61,15.17-2.61s10.34.89,15.17,2.61c-3.82,9.36-9.24,15.35-15.17,15.35ZM112.58,83.16c2.58,1.24,5.07,2.73,7.41,4.44-4.27,3.14-9.07,5.57-14.28,7.11,2.64-3.02,4.98-6.93,6.87-11.55ZM80.05,94.69c-5.21-1.54-10.04-3.97-14.31-7.14,2.34-1.72,4.8-3.23,7.41-4.47,1.9,4.68,4.24,8.59,6.9,11.61ZM92.88,73.71c-5.78,0-11.47,1.01-16.83,2.9-2.13-6.78-3.47-14.84-3.67-23.46h41c-.21,8.62-1.54,16.68-3.67,23.46-5.39-1.87-11.05-2.9-16.83-2.9ZM72.35,48.26c.21-8.41,1.48-16.53,3.67-23.46,5.36,1.9,11.05,2.9,16.83,2.9s11.47-1.01,16.83-2.9c2.19,6.93,3.47,15.05,3.67,23.46h-41ZM112.58,18.34c-.83-2.01-1.75-3.94-2.73-5.69-1.27-2.28-2.67-4.24-4.15-5.93,5.16,1.51,10.01,3.91,14.34,7.11-2.34,1.75-4.86,3.26-7.47,4.5ZM105.59,15.05c.89,1.6,1.72,3.32,2.46,5.16-4.83,1.69-9.98,2.61-15.2,2.61s-10.34-.92-15.17-2.61c.77-1.84,1.57-3.58,2.46-5.16,3.7-6.58,8.21-10.19,12.71-10.19,4.53,0,9.07,3.61,12.74,10.19ZM75.88,12.65c-.98,1.75-1.9,3.67-2.73,5.69-2.64-1.24-5.13-2.76-7.47-4.5,4.36-3.2,9.21-5.6,14.34-7.11-1.48,1.69-2.87,3.67-4.15,5.93ZM57.89,21.09c1.21-1.42,2.55-2.76,3.94-4.03,2.99,2.34,6.22,4.33,9.66,5.93-2.4,7.5-3.79,16.24-4.03,25.27h-20.32c.53-9.98,4.27-19.55,10.75-27.17ZM47.14,53.15h20.32c.21,9.39,1.63,18.01,4,25.3-3.41,1.57-6.61,3.58-9.6,5.9-8.53-7.82-14.04-18.87-14.72-31.2ZM123.87,84.38c-2.99-2.31-6.19-4.33-9.6-5.9,2.34-7.29,3.76-15.94,4-25.3h20.32c-.65,12.3-6.19,23.35-14.72,31.2ZM156.55,24.21c0-2.52,2.04-4.53,4.53-4.53s4.53,2.04,4.53,4.53-2.04,4.53-4.53,4.53c-2.49,0-4.53-2.01-4.53-4.53ZM156.55,69.18c0-2.52,2.04-4.53,4.53-4.53s4.53,2.04,4.53,4.53-2.04,4.53-4.53,4.53-4.53-2.01-4.53-4.53ZM93.86,114.45h86.04v22.58h-86.04v-22.58ZM179.9,178.65h-86.04v-22.58h86.04s0,22.58,0,22.58ZM162.74,151.19h-51.73v-9.27h51.73s0,9.27,0,9.27Z"/></g></svg>