<?xml version="1.0" encoding="UTF-8"?><svg id="Capa_2" xmlns="http://www.w3.org/2000/svg" viewBox="0 0 184.82 211.21"><defs><style>.cls-1{fill:#fff;stroke-width:0px;}</style></defs><g id="Capa_1-2"><path class="cls-1" d="M63.85,105.63c0,8.4-4.58,16.15-11.96,20.21-.53.29-1.1.43-1.67.43-1.23,0-2.41-.65-3.05-1.8-.93-1.68-.31-3.8,1.37-4.72,5.16-2.84,8.36-8.26,8.36-14.13s-3.21-11.29-8.35-14.13c-1.68-.93-2.3-3.03-1.37-4.72.93-1.68,3.03-2.3,4.72-1.37,7.38,4.05,11.96,11.8,11.96,20.22h-.01ZM184.81,105.63c0,6-4.88,10.88-10.88,10.88-4.79,0-8.86-3.1-10.31-7.4h-58.73v11.17h42.6c1.24,0,2.39.66,3.01,1.73l8.59,14.87c.69-.14,1.41-.22,2.15-.22,6,0,10.89,4.89,10.89,10.89s-4.89,10.88-10.89,10.88-10.88-4.88-10.88-10.88c0-2.75,1.03-5.27,2.71-7.19l-7.59-13.15h-40.6v22.32h25.18c1.24,0,2.39.66,3.01,1.73l8.84,15.29c.69-.14,1.41-.22,2.15-.22,6,0,10.88,4.89,10.88,10.89s-4.88,10.88-10.88,10.88-10.89-4.88-10.89-10.88c0-2.75,1.03-5.27,2.72-7.2l-7.84-13.56h-23.18v33.59c0,9.73-6.6,18.07-16.06,20.3-2.33.56-4.77.85-7.23.85-12.42,0-23.17-7.25-28.26-17.75-17.15-3.03-30.18-17.22-31.94-34.43-12.53-3.64-21.38-15.23-21.38-28.52,0-7.37,2.74-14.19,7.29-19.43-4.71-6.45-7.29-14.26-7.29-22.32,0-14.56,8.25-27.64,21.19-33.94.64-18.39,14.1-33.88,32.11-37.06C58.39,7.26,69.15,0,81.57,0c2.45,0,4.9.29,7.24.85,9.44,2.23,16.05,10.58,16.05,20.31v33.59h23.18l7.84-13.57c-1.69-1.92-2.72-4.43-2.72-7.19,0-6,4.89-10.89,10.89-10.89s10.88,4.89,10.88,10.89-4.88,10.88-10.88,10.88c-.73,0-1.45-.07-2.15-.22l-8.84,15.3c-.62,1.07-1.77,1.74-3.01,1.74h-25.18v22.31h40.6l7.59-13.15c-1.69-1.92-2.71-4.43-2.71-7.19,0-6,4.88-10.88,10.88-10.88s10.89,4.88,10.89,10.88-4.89,10.89-10.89,10.89c-.73,0-1.45-.07-2.15-.22l-8.59,14.87c-.62,1.07-1.77,1.73-3.01,1.73h-42.6v11.18h58.73c1.45-4.31,5.53-7.41,10.32-7.41,6,0,10.88,4.89,10.88,10.89v.04ZM157.3,63.69c0,2.18,1.76,3.94,3.93,3.94s3.94-1.76,3.94-3.94-1.76-3.93-3.94-3.93-3.93,1.76-3.93,3.93ZM140.12,34.02c0,2.17,1.76,3.93,3.94,3.93s3.93-1.76,3.93-3.93-1.76-3.94-3.93-3.94-3.94,1.76-3.94,3.94ZM144.06,173.33c-2.18,0-3.94,1.76-3.94,3.94s1.76,3.93,3.94,3.93,3.93-1.76,3.93-3.93-1.76-3.94-3.93-3.94ZM161.23,143.64c-2.17,0-3.93,1.76-3.93,3.94s1.76,3.93,3.93,3.93,3.94-1.76,3.94-3.93-1.76-3.94-3.94-3.94ZM97.92,120.29v-29.3h-12.58c-5.42,0-10.46-2.9-13.19-7.61-1.74-3.03-2.39-6.58-1.86-9.99.3-1.9,2.07-3.2,3.98-2.89,1.9.3,3.2,2.08,2.89,3.98-.3,1.89.05,3.76,1.01,5.43,1.51,2.61,4.34,4.2,7.34,4.13h12.42v-25.93c.09-5.63-2.86-10.87-7.73-13.69-3.1-1.79-6.62-2.45-10.16-1.9-1.9.3-3.68-1-3.98-2.9-.3-1.9,1-3.68,2.9-3.98,5.06-.79,10.29.18,14.73,2.74,1.56.9,2.98,1.97,4.26,3.19v-20.4c0-6.59-4.3-12.04-10.69-13.54-1.83-.43-3.72-.66-5.63-.66-13.48,0-24.44,10.97-24.44,24.46,0,7.87,3.82,15.3,10.21,19.89,1.56,1.12,1.92,3.29.8,4.86-1.12,1.56-3.29,1.92-4.86.8-8.21-5.89-13.12-15.44-13.12-25.54,0-2.02.2-3.99.57-5.9-13.22,4.05-22.63,16.4-22.63,30.67,0,4.6.95,9.02,2.81,13.16.79,1.75.01,3.81-1.73,4.6-.46.21-.95.31-1.42.31-1.33,0-2.59-.76-3.17-2.04-1.4-3.11-2.38-6.36-2.92-9.73-9.06,5.54-14.71,15.4-14.71,26.29,0,6.32,1.94,12.46,5.52,17.59,4.27-3.06,9.38-5.03,14.93-5.46,1.92-.14,3.59,1.29,3.72,3.21.14,1.92-1.29,3.59-3.21,3.72-11.76.89-20.97,10.85-20.97,22.68,0,9.45,5.84,17.77,14.36,21.14.37-4.39,1.46-8.64,3.28-12.65.79-1.75,2.85-2.53,4.6-1.73,1.75.79,2.53,2.85,1.73,4.6-1.87,4.13-2.81,8.55-2.81,13.16,0,14.27,9.42,26.63,22.64,30.68-.37-1.92-.57-3.89-.57-5.91,0-10.1,4.9-19.65,13.12-25.54,1.56-1.12,3.73-.76,4.86.8,1.12,1.56.76,3.73-.8,4.86-6.39,4.59-10.21,12.02-10.21,19.89,0,13.49,10.96,24.46,24.44,24.46,1.92,0,3.81-.23,5.62-.65,6.41-1.51,10.72-6.95,10.72-13.53v-20.4c-1.27,1.22-2.7,2.28-4.26,3.19-3.42,1.97-7.32,3-11.24,3-1.17,0-2.32-.09-3.48-.27-1.9-.3-3.2-2.08-2.9-3.98s2.08-3.2,3.98-2.9c3.54.56,7.05-.09,10.17-1.89,4.87-2.82,7.83-8.05,7.73-13.67v-25.94h-12.42c-3.01-.06-5.84,1.53-7.35,4.15-.95,1.66-1.3,3.54-1,5.42.3,1.9-1,3.68-2.89,3.98-.19.03-.37.04-.55.04-1.68,0-3.16-1.23-3.43-2.94-.54-3.42.11-6.96,1.85-9.98,2.77-4.79,7.91-7.69,13.41-7.62h12.39l-.07-.04ZM177.86,105.64c0-2.18-1.76-3.94-3.93-3.94s-3.94,1.76-3.94,3.94,1.76,3.93,3.94,3.93,3.93-1.76,3.93-3.93ZM109.46,17.18c0-6,4.88-10.89,10.88-10.89s10.89,4.89,10.89,10.89-4.89,10.88-10.89,10.88-10.88-4.88-10.88-10.88ZM116.41,17.18c0,2.17,1.76,3.93,3.93,3.93s3.94-1.76,3.94-3.93-1.76-3.94-3.94-3.94-3.93,1.76-3.93,3.94ZM131.23,194.1c0,6-4.89,10.88-10.89,10.88s-10.88-4.88-10.88-10.88,4.88-10.89,10.88-10.89,10.89,4.89,10.89,10.89ZM124.28,194.1c0-2.18-1.76-3.94-3.94-3.94s-3.93,1.76-3.93,3.94,1.76,3.93,3.93,3.93,3.94-1.76,3.94-3.93Z"/></g></svg>