<?xml version="1.0" encoding="UTF-8"?><svg id="Capa_2" xmlns="http://www.w3.org/2000/svg" viewBox="0 0 191.46 183.87"><defs><style>.cls-1{fill:#202943;stroke-width:0px;}</style></defs><g id="Capa_1-2"><path class="cls-1" d="M177.76,0H13.67C6.14,0,0,6.14,0,13.67v112.84c0,7.53,6.14,13.67,13.67,13.67h64.57c-.96,8.4-2.91,15.42-9.39,28.24h-12.88c-3.23,0-5.87,2.63-5.87,5.87v3.71c0,3.23,2.63,5.87,5.87,5.87h79.49c3.23,0,5.87-2.63,5.87-5.87v-3.71c0-3.23-2.63-5.87-5.87-5.87h-12.86c-6.47-12.82-8.43-19.83-9.39-28.24h64.57c7.53,0,13.67-6.14,13.67-13.67V13.67c-.02-7.53-6.15-13.67-13.69-13.67h0ZM13.67,3.91h164.09c5.39,0,9.76,4.39,9.76,9.76v104.08H3.91V13.67c0-5.39,4.37-9.76,9.76-9.76h0ZM137.42,174.29v3.71c0,1.08-.88,1.96-1.96,1.96H55.97c-1.08,0-1.96-.88-1.96-1.96v-3.71c0-1.08.88-1.96,1.96-1.96h79.49c1.09.02,1.96.9,1.96,1.96ZM118.23,168.44h-45.03c6.12-12.42,8.01-19.73,8.95-28.24h27.12c.95,8.51,2.84,15.82,8.97,28.24h0ZM177.76,136.3H13.67c-5.39,0-9.76-4.39-9.76-9.76v-4.87h183.61v4.87c0,5.37-4.36,9.76-9.75,9.76h0ZM103.23,128.97c0,1.08-.88,1.96-1.96,1.96h-11.11c-1.08,0-1.96-.88-1.96-1.96s.88-1.96,1.96-1.96h11.11c1.09,0,1.96.88,1.96,1.96ZM35.33,98.91c-.89-3.85-4.32-6.72-8.43-6.72-4.79,0-8.68,3.89-8.68,8.68s3.89,8.68,8.68,8.68c4.12,0,7.55-2.87,8.43-6.72h20.29c.52,0,1.02-.21,1.37-.56l12.18-12.15c.64.59,1.27,1.2,1.98,1.75,1.79,1.41,4.24,1.52,6.14.23,2.16-1.48,4.28-1.89,5.97-1.19,1.68.71,2.89,2.5,3.39,5.08.44,2.23,2.23,3.91,4.5,4.19,1.52.16,3.06.27,4.58.27s3.06-.08,4.58-.27c2.27-.27,4.08-1.93,4.5-4.19.5-2.58,1.71-4.37,3.39-5.08,1.68-.71,3.8-.27,5.97,1.19,1.89,1.27,4.35,1.19,6.14-.23.68-.54,1.31-1.16,1.98-1.75l12.18,12.15c.37.37.85.56,1.37.56h20.29c.89,3.85,4.32,6.72,8.43,6.72,4.79,0,8.68-3.89,8.68-8.68s-3.89-8.68-8.68-8.68c-4.12,0-7.55,2.87-8.43,6.72h-19.48l-11.61-11.57c.59-.64,1.2-1.29,1.75-1.98,1.41-1.79,1.5-4.24.23-6.12-1.45-2.16-1.89-4.28-1.19-5.97.71-1.68,2.5-2.89,5.06-3.39,2.23-.44,3.91-2.24,4.16-4.5.11-.85.16-1.72.21-2.58h20.87c.89,3.85,4.32,6.72,8.43,6.72,4.79,0,8.68-3.89,8.68-8.68s-3.89-8.68-8.68-8.68c-4.12,0-7.55,2.87-8.43,6.72h-20.88c-.04-.85-.11-1.72-.21-2.58-.25-2.27-1.93-4.06-4.16-4.5-2.56-.5-4.35-1.71-5.06-3.39-.71-1.68-.27-3.8,1.19-5.97,1.27-1.87,1.19-4.35-.23-6.12-.54-.68-1.16-1.31-1.75-1.98l11.61-11.57h19.48c.89,3.85,4.32,6.72,8.43,6.72,4.79,0,8.68-3.89,8.68-8.68s-3.89-8.68-8.68-8.68c-4.12,0-7.55,2.87-8.43,6.72h-20.29c-.52,0-1.02.21-1.37.56l-12.18,12.15c-.64-.59-1.27-1.2-1.98-1.75-1.79-1.41-4.24-1.52-6.14-.23-2.16,1.45-4.28,1.89-5.97,1.19-1.68-.71-2.89-2.5-3.39-5.08-.44-2.23-2.23-3.91-4.5-4.19-3.04-.36-6.12-.36-9.15,0-2.27.27-4.08,1.93-4.5,4.19-.5,2.58-1.71,4.37-3.39,5.08-1.68.71-3.8.27-5.97-1.19-1.89-1.27-4.35-1.19-6.14.23-.68.54-1.31,1.16-1.98,1.75l-12.18-12.15c-.37-.37-.85-.56-1.37-.56h-20.29c-.89-3.85-4.32-6.72-8.43-6.72-4.79,0-8.68,3.89-8.68,8.68s3.89,8.68,8.68,8.68c4.12,0,7.55-2.87,8.43-6.72h19.48l11.61,11.57c-.59.64-1.2,1.29-1.75,1.98-1.41,1.79-1.5,4.24-.23,6.12,1.45,2.16,1.89,4.28,1.19,5.97-.71,1.68-2.5,2.89-5.06,3.39-2.23.44-3.91,2.24-4.16,4.5-.11.85-.16,1.72-.21,2.58h-20.86c-.89-3.85-4.32-6.72-8.43-6.72-4.79,0-8.68,3.89-8.68,8.68s3.89,8.68,8.68,8.68c4.12,0,7.55-2.87,8.43-6.72h20.87c.04.85.11,1.72.21,2.58.25,2.27,1.93,4.06,4.16,4.5,2.56.5,4.35,1.71,5.06,3.39.71,1.68.27,3.8-1.19,5.97-1.27,1.87-1.19,4.35.23,6.12.54.68,1.16,1.31,1.75,1.98l-11.61,11.57h-19.48ZM26.9,105.62c-2.63,0-4.76-2.15-4.76-4.76s2.15-4.76,4.76-4.76,4.76,2.15,4.76,4.76-2.14,4.76-4.76,4.76ZM164.53,96.07c2.63,0,4.76,2.15,4.76,4.76s-2.15,4.76-4.76,4.76-4.76-2.15-4.76-4.76,2.14-4.76,4.76-4.76ZM164.53,56.06c2.63,0,4.76,2.15,4.76,4.76s-2.15,4.76-4.76,4.76-4.76-2.15-4.76-4.76,2.14-4.76,4.76-4.76ZM164.53,16.05c2.63,0,4.76,2.15,4.76,4.76s-2.15,4.76-4.76,4.76-4.76-2.15-4.76-4.76,2.14-4.76,4.76-4.76ZM26.9,25.57c-2.63,0-4.76-2.15-4.76-4.76s2.15-4.76,4.76-4.76,4.76,2.15,4.76,4.76-2.14,4.76-4.76,4.76ZM26.9,65.59c-2.63,0-4.76-2.15-4.76-4.76s2.15-4.76,4.76-4.76,4.76,2.15,4.76,4.76-2.14,4.76-4.76,4.76ZM61.32,66.03c-.56-.11-.96-.54-1.02-1.11-.31-2.71-.31-5.47,0-8.18.07-.59.46-1,1.02-1.11,3.89-.75,6.7-2.79,7.91-5.72,1.23-2.93.67-6.36-1.56-9.66-.33-.48-.31-1.06.07-1.52,1.71-2.16,3.68-4.14,5.84-5.84.46-.36,1.04-.37,1.52-.07,3.28,2.23,6.72,2.79,9.67,1.56,2.96-1.23,4.97-4.04,5.72-7.95.11-.56.54-.96,1.11-1.04,2.75-.31,5.51-.31,8.26,0,.59.07,1,.46,1.11,1.04.75,3.91,2.79,6.74,5.72,7.95,2.93,1.23,6.36.67,9.67-1.56.48-.33,1.06-.31,1.52.07,2.16,1.72,4.14,3.68,5.84,5.84.36.46.37,1.04.07,1.52-2.23,3.28-2.76,6.72-1.56,9.66s4.02,4.97,7.91,5.72c.56.11.96.54,1.02,1.11.31,2.71.31,5.47,0,8.18-.07.59-.46,1-1.02,1.11-3.89.75-6.7,2.79-7.91,5.72-1.23,2.93-.67,6.36,1.56,9.66.33.48.31,1.06-.07,1.52-1.71,2.16-3.68,4.14-5.84,5.84-.46.36-1.04.37-1.52.07-3.28-2.23-6.72-2.79-9.67-1.56-2.96,1.23-4.97,4.04-5.72,7.95-.11.56-.54.96-1.11,1.04-2.75.31-5.51.31-8.26,0-.59-.07-1-.46-1.11-1.04-.75-3.91-2.79-6.74-5.72-7.95-1.02-.41-2.11-.63-3.2-.63-2.11,0-4.31.75-6.45,2.2-.48.33-1.06.31-1.52-.07-2.16-1.72-4.12-3.68-5.84-5.84-.36-.46-.37-1.04-.07-1.52,2.23-3.28,2.76-6.72,1.56-9.66-1.24-2.95-4.06-4.97-7.93-5.74h0ZM95.72,79.84c10.49,0,19.02-8.53,19.02-19.02s-8.53-19.02-19.02-19.02-19.02,8.53-19.02,19.02,8.53,19.02,19.02,19.02ZM95.72,45.71c8.32,0,15.11,6.79,15.11,15.11s-6.79,15.11-15.11,15.11-15.11-6.79-15.11-15.11,6.79-15.11,15.11-15.11Z"/></g></svg>