<?xml version="1.0" encoding="utf-8"?>
<!-- Generator: Adobe Illustrator 19.2.1, SVG Export Plug-In . SVG Version: 6.00 Build 0)  -->
<svg version="1.1" id="layer" xmlns="http://www.w3.org/2000/svg" xmlns:xlink="http://www.w3.org/1999/xlink" x="0px" y="0px"
	 viewBox="0 0 652 652" style="enable-background:new 0 0 652 652;" xml:space="preserve">
<style type="text/css">
	.st0{fill:#3D4952;}
	.st1{fill:#F06F37;}
</style>
<g>
	<path class="st0" d="M150.3,340.7H89c2.1,11.6,10.3,18.7,20.2,18.7c6.3,0,14.2-0.8,20-10.7l19,4c-7.1,16.8-21.5,24.9-39.1,24.9
		c-22.8,0-41.3-17.3-41.3-42.6s18.6-42.8,41.6-42.8c21.5,0,40,16.6,40.8,41.2V340.7z M89.6,325.7h38.9c-2.7-10.3-10.5-14.9-19-14.9
		C101.4,310.9,92.2,315.7,89.6,325.7"/>
	<path class="st0" d="M377.6,375.3h-21.3v-6.9c-6.5,6-15.3,9.4-26.6,9.4c-20.5,0-39.5-17.3-39.5-42.6c0-25.3,19-42.8,39.5-42.8
		c11.3,0,20.2,3.4,26.6,9.4v-38h21.3V375.3z M356.3,335.1c0-14.9-11.5-24.2-22.9-24.2c-12.9,0-22.6,9.4-22.6,24.2
		c0,14.9,9.7,24,22.6,24C344.9,359.1,356.3,349.9,356.3,335.1"/>
	<path class="st0" d="M551.9,294.9L551.9,294.9l-29.4,0v17.8h29.4c8.2,0,13.7,3.5,13.7,11.6v1.3h-23.2c-20.3,0-32,10.3-32,25.8
		c0,15.8,12.3,26.3,30.7,26.3c11,0,19-3.7,24.5-9v6.6H586v-52.6C586,303.5,572.5,295.3,551.9,294.9 M565.6,342.7
		c0,10.3-9.8,18.1-21.1,18.1c-8.2,0-13.7-3.9-13.7-9.8c0-5.5,4.5-9.2,11.3-9.2h23.6V342.7z"/>
	<path class="st0" d="M426,294.9L426,294.9l-29.4,0v17.8H426c8.2,0,13.7,3.5,13.7,11.6v1.3h-23.2c-20.3,0-32,10.3-32,25.8
		c0,15.8,12.3,26.3,30.7,26.3c11,0,19-3.7,24.5-9v6.6H460v-52.6C460,303.5,446.5,295.3,426,294.9 M439.7,342.7
		c0,10.3-9.8,18.1-21.1,18.1c-8.2,0-13.7-3.9-13.7-9.8c0-5.5,4.5-9.2,11.3-9.2h23.6V342.7z"/>
	<path class="st0" d="M248.9,294.9L248.9,294.9l-29.4,0v17.8h29.4c8.2,0,13.7,3.5,13.7,11.6v1.3h-23.2c-20.3,0-32,10.3-32,25.8
		c0,15.8,12.3,26.3,30.7,26.3c11,0,19-3.7,24.5-9v6.6H283v-52.6C283,303.5,269.5,295.3,248.9,294.9 M262.6,342.7
		c0,10.3-9.8,18.1-21.1,18.1c-8.2,0-13.7-3.9-13.7-9.8c0-5.5,4.5-9.2,11.3-9.2h23.6V342.7z"/>
	<path class="st0" d="M208.1,294.8c-13.1,0-22.4,5.2-28.9,14.6v-14.7h-21.3v80.5h21.3v-26c0-22.4,9-36.5,28.7-36.5h1v-17.9
		C208.6,294.8,208.4,294.8,208.1,294.8"/>
	<path class="st0" d="M63.8,355.8c-3.2,1.2-6.6,2-9.2,2c-7.1,0-11.8-4.2-11.8-13.9v-31.8h21.8v-17.4H42.8V275H21.5v37.2v33.4
		c0,22.1,12.6,32.1,31.6,32.1c6.7,0,13.2-1.4,21.4-5.9C70.2,367.4,66.1,362,63.8,355.8"/>
	<path class="st0" d="M503.7,357.6c-0.9,0.1-1.7,0.2-2.4,0.2c-7.1,0-11.8-4.2-11.8-13.9v-31.8h22.4v-17.4h-22.4V275h-21.3v37.2v33.4
		c0,22.1,12.6,32.1,31.6,32.1c4.7,0,8.8-0.7,13.7-2.6C507.2,370.6,504.8,363.2,503.7,357.6"/>
	<path class="st1" d="M621.5,363c0,7.6-5.8,13.5-14,13.5c-8.1,0-14-5.8-14-13.5c0-7.3,5.8-13.6,14-13.6
		C615.7,349.4,621.5,355.8,621.5,363"/>
</g>
</svg>
