<?xml version="1.0" encoding="UTF-8"?><svg id="Capa_2" xmlns="http://www.w3.org/2000/svg" viewBox="0 0 37.52 37.52"><defs><style>.cls-1{fill:#fff;}</style></defs><g id="Layer_1__x2B__BOTTOM_FOOTER__x2B__TOP_FOOTER__x2B__OUR_GALLERY__x2B__ABOUT__x2B__CONTACT_US__x2B__ADVANTAGES__x2B__TEAM_LEADERS__x2B__TITLE_SECTION_xA0_Imagen"><path class="cls-1" d="M18.76,0C8.42,0,0,8.42,0,18.76s8.42,18.76,18.76,18.76,18.76-8.42,18.76-18.76S29.11,0,18.76,0ZM18.76,33.96c-8.42,0-15.2-6.78-15.2-15.2S10.35,3.56,18.76,3.56s15.2,6.78,15.2,15.2-6.78,15.2-15.2,15.2Z"/><path class="cls-1" d="M28.91,12.03c-.64-.64-1.63-.64-2.28,0l-4.31,4.31-5.69,5.74-5.79-5.74c-.64-.64-1.63-.64-2.28,0s-.64,1.63,0,2.28l6.88,6.88c.3.3.74.5,1.14.44.4,0,.84-.15,1.14-.44l11.19-11.19c.65-.65.65-1.64,0-2.28h0Z"/></g></svg>