<?xml version="1.0" encoding="UTF-8"?><svg id="Capa_2" xmlns="http://www.w3.org/2000/svg" viewBox="0 0 59.29 37.13"><defs><style>.cls-1{fill:#fff;}</style></defs><g id="Layer_1__x2B__BOTTOM_FOOTER__x2B__TOP_FOOTER__x2B__OUR_GALLERY__x2B__ABOUT__x2B__CONTACT_US__x2B__ADVANTAGES__x2B__TEAM_LEADERS__x2B__TITLE_SECTION_xA0_Imagen"><path class="cls-1" d="M59.21,19.74L52.89,1.1c-.15-.42-.45-.76-.86-.95-.41-.19-.86-.2-1.28-.04l-6.24,2.45c-.81.31-1.22,1.21-.95,2.03.06.19.14.41.22.66-1.23.76-3.78,1.43-4.49,1.27-.12-.03-.62-.21-1.09-.4-2.35-.89-4.98-1.84-6.39-1.74-.77.05-1.77.32-3.1.84-1.14-.66-2.92-1.28-3.88-1.28h-.02c-1.55.01-4.01.62-5.81,1.06-.86.21-1.76.43-2,.44-.33,0-.81-.18-1.2-.37.06-.18.12-.35.17-.49.27-.82-.14-1.71-.95-2.03L8.76.11c-.41-.16-.88-.15-1.28.04-.41.19-.71.53-.86.95L.09,20.28c-.27.81.13,1.7.92,2.03l5.98,2.48c.2.08.42.13.62.13s.43-.04.64-.13c.4-.17.72-.49.88-.9.09-.24.21-.53.33-.85,2,1.95,4.06,3.24,5.07,3.82-.51.98-.82,2.45.31,3.5.84.78,1.98.7,2.79.49.04.78.3,1.77,1.23,2.36.61.39,1.3.39,1.83.29.12.6.42,1.25,1.1,1.65.8.48,1.73.43,2.33.33.24.45.68,1.03,1.47,1.38.4.18.78.25,1.15.25,1.17,0,2.12-.78,2.65-1.36.55.4,1.49.86,2.81.8,1.2-.05,1.84-.79,2.15-1.51.72.27,1.77.5,2.59,0,.8-.5,1.28-1.45,1.52-2.06.62.03,1.59-.07,2.52-.81.88-.69,1.16-1.57,1.24-2.22.77.06,1.9-.07,2.83-1.03,1.01-1.04.8-2.41.43-3.3.64-.56,1.89-1.69,2.56-2.5.35-.42.98-.88,1.59-1.26.32.85.35.99.54,1.47.16.41.48.72.88.9.2.09.42.13.64.13.21,0,.42-.04.62-.13l5.98-2.48c.78-.34,1.19-1.23.91-2.04h0ZM7.87,23.39c-.04.1-.12.14-.15.16-.04.02-.13.04-.22,0l-5.98-2.48c-.14-.06-.21-.21-.16-.36L7.92,1.54c.03-.1.11-.15.15-.17.03-.01.07-.03.12-.03.03,0,.07,0,.11.02l6.24,2.45c.14.05.21.21.17.36-.55,1.63-2.02,5.97-3.85,11.21-1.37,3.87-2.46,6.68-2.98,8.01h0ZM17.97,29.33c-.35.15-1.58.64-2.2.05-.9-.84.24-2.36.25-2.37l.46-.6c1.03-.91,2.88-2.18,3.88-1.36.34.28.52.56.54.85.03.46-.3,1.08-1.02,1.87-.58.65-1.45,1.26-1.91,1.56h0ZM21.02,32c-.27.13-.98.36-1.43.08-.67-.43-.65-1.4-.6-1.84.54-.37,1.31-.95,1.88-1.57.35-.38.72-.83.98-1.33.39-.1,1.2-.2,1.8.57.49.63.36,1.12-.64,2.38-.69.87-1.84,1.62-2,1.71h0ZM24.22,34.11c-.36.1-1.16.24-1.72-.1-.41-.24-.49-.73-.5-1.04.48-.33,1.42-1.02,2.06-1.83.43-.54.98-1.24,1.16-2.03.34.08.74.24,1.05.53.62.6.8,1.21-.09,2.46-.59.83-1.64,1.74-1.95,2.01h0ZM29.14,33.87l-.37.55s-1.25,1.83-2.62,1.22c-.43-.19-.68-.5-.81-.74.49-.43,1.36-1.24,1.92-2.03.11-.15.26-.37.42-.65.21-.05.74-.13,1.12.31.28.32.42.76.38,1.16,0,.07-.03.12-.05.18h0ZM44.1,27.99c-.8.83-1.9.64-2.22.55-2.53-1.91-6.88-6.57-8.27-8.08-.25-.27-.67-.29-.94-.04-.27.25-.3.68-.05.95,1.4,1.52,5.64,6.07,8.3,8.13,0,.36-.08,1.09-.76,1.62-.82.64-1.63.55-1.88.5-2.59-1.62-6.25-6.17-7.45-7.71-.22-.29-.64-.34-.93-.12-.3.23-.36.65-.13.94,1.19,1.53,4.68,5.88,7.44,7.79-.19.47-.52,1.11-.97,1.39-.46.29-1.47-.09-1.94-.35-.41-.37-3.23-2.87-5.76-6.22-.22-.3-.64-.36-.93-.14-.3.22-.37.65-.14.94,2.36,3.12,4.89,5.45,5.72,6.21-.1.35-.36.84-1.03.86-.92.03-1.54-.25-1.91-.5.14-.26.24-.55.27-.88.08-.77-.18-1.59-.7-2.18-.51-.59-1.15-.78-1.7-.8.05-.67-.15-1.43-.91-2.17-.67-.66-1.55-.88-2.13-.97-.09-.2-.21-.41-.37-.62-.73-.93-1.69-1.17-2.48-1.15,0-.05,0-.1,0-.15-.05-.67-.4-1.27-1.04-1.79-2.08-1.7-5.06.86-5.95,1.7-.99-.56-3.23-1.96-5.26-4.05.56-1.49,1.29-3.46,2.13-5.83,1.37-3.9,2.52-7.29,3.26-9.46.46.21,1.05.42,1.61.42h.08c.36-.01,1.03-.18,2.27-.48,1.73-.43,4.11-1.01,5.5-1.03h.01c.49,0,1.42.28,2.24.62-.21.09-.42.19-.65.3-.85.39-1.75.78-2.53,1.11-1.59.68-2.16.94-2.42,1.14-.88.71-4.76,6.52-4.25,7.67.24.52,1.07,1.19,2.36,1.39,1.62.26,4.2-.15,7.31-3.5,2-.5,4.47-.77,5.37-.85.7.85,2.91,3.48,4.61,5.26.87.91,2.04,2.06,3.17,3.16,1.5,1.47,3.05,2.99,3.71,3.78l.3.47c.04.05.83,1.32.02,2.16h0ZM47.01,22.28c-.55.67-1.59,1.61-2.23,2.18-.72-.85-2.2-2.3-3.77-3.84-.31-.31-.98-.97-1-.98.67-.21,1.49-.58,2.28-1.22.31-.25.33-.72.05-1-.24-.24-.62-.26-.88-.05-.98.79-2.01,1.07-2.56,1.17-.37-.37-.72-.72-1.03-1.04-2-2.1-4.74-5.43-4.77-5.46l-.22-.27-.35.03c-.14.01-3.54.28-6.14.97l-.19.05-.13.15c-2.79,3.07-4.97,3.36-6.01,3.26-.84-.08-1.33-.4-1.51-.56.32-1.1,2.89-5.43,3.78-6.15.19-.13,1.21-.57,2.12-.96.8-.34,1.7-.73,2.56-1.12,2.38-1.09,3.94-1.63,4.92-1.7,1.25-.08,4.33,1.09,5.83,1.66.72.27,1.06.4,1.27.45,1.2.27,3.84-.54,5.23-1.29.74,2.16,1.87,5.46,3.19,9.28.64,1.85,1.23,3.44,1.72,4.76-.73.42-1.63,1.04-2.15,1.67h0ZM57.78,20.53l-5.98,2.48c-.1.04-.18.01-.22,0-.04-.02-.12-.06-.15-.16-.21-.52-2.08-5.63-2.73-7.46-1.84-5.27-3.31-9.6-3.85-11.22-.05-.14.03-.3.17-.36l6.24-2.45s.07-.02.11-.02c.05,0,.09.01.12.03.04.02.12.07.15.17l6.31,18.62c.03.16-.04.32-.18.37h0Z"/></g></svg>