<?xml version="1.0" encoding="UTF-8"?><svg id="Capa_2" xmlns="http://www.w3.org/2000/svg" viewBox="0 0 823.04 529.95"><defs><style>.cls-1{fill:#fff;}</style></defs><g id="Capa_2-2"><path d="M412.66,252.79c71.4,0,129.46-56.69,129.46-126.38S484.05.04,412.66.04s-129.46,56.69-129.46,126.38,58.07,126.38,129.46,126.38ZM412.66,27.51c55.83,0,101.27,44.36,101.27,98.86s-45.44,98.86-101.27,98.86-101.27-44.36-101.27-98.86,45.44-98.86,101.27-98.86Z"/><path d="M669.9,230.47c65.08,0,118.04-51.71,118.04-115.23S734.97,0,669.9,0s-118.04,51.71-118.04,115.23,52.97,115.23,118.04,115.23ZM669.9,27.51c49.55,0,89.86,39.34,89.86,87.72s-40.3,87.72-89.86,87.72-89.86-39.34-89.86-87.72,40.3-87.72,89.86-87.72Z"/><path d="M669.9,221.4c-56.93,0-108.54,30.85-134.89,78.76-30.72-31.78-74.15-51.74-122.31-51.74s-93.24,20.39-123.96,53.03c-26.1-48.7-77.89-80.01-135.64-80.01C70.29,221.44,3.08,284.68.11,365.44c-.07,1.83-.11,3.62-.11,5.45v93.16c0,7.6,6.31,13.76,14.1,13.76h230.23v38.38c0,7.6,6.31,13.76,14.1,13.76h308.56c7.78,0,14.1-6.16,14.1-13.76v-38.38h227.88c7.78,0,14.1-6.16,14.1-13.76l-.04-93.2c0-82.42-68.68-149.46-153.1-149.46h0ZM28.15,450.26v-79.4c0-1.5.04-2.97.07-4.48,2.42-65.86,57.26-117.46,124.84-117.46,51.76,0,97.61,30.89,116.25,77.47-14.79,23.47-23.86,50.81-24.92,80.37-.07,2.01-.11,3.98-.11,5.98v37.52H28.15ZM552.84,502.43h-280.37v-89.62c0-1.68.04-3.37.07-5.02.99-26.37,9.54-50.63,23.46-71.06.62-.79,1.21-1.65,1.65-2.54,25.33-35.37,67.32-58.26,114.96-58.26,77.31,0,140.18,61.38,140.18,136.84l.04,89.65ZM794.81,450.26h-213.78v-37.52c0-32.54-9.84-62.78-26.61-88.33,19.16-45.4,64.71-75.54,115.44-75.54,68.86,0,124.91,54.72,124.91,121.94l.04,79.44Z"/><path d="M153.06,230.47c65.08,0,118.04-51.71,118.04-115.23S218.14,0,153.06,0,35.02,51.71,35.02,115.23s52.97,115.23,118.04,115.23ZM153.06,27.51c49.55,0,89.86,39.34,89.86,87.72s-40.3,87.72-89.86,87.72-89.86-39.34-89.86-87.72S103.51,27.51,153.06,27.51Z"/><line class="cls-1" x1="390.47" y1="136.16" x2="411.52" y2="140.16"/></g></svg>