<?xml version="1.0" encoding="UTF-8"?><svg id="Capa_2" xmlns="http://www.w3.org/2000/svg" viewBox="0 0 35.13 43.23"><defs><style>.cls-1{fill:#fff;}</style></defs><g id="Layer_1__x2B__BOTTOM_FOOTER__x2B__TOP_FOOTER__x2B__OUR_GALLERY__x2B__ABOUT__x2B__CONTACT_US__x2B__ADVANTAGES__x2B__TEAM_LEADERS__x2B__TITLE_SECTION_xA0_Imagen"><path class="cls-1" d="M.16,38.13c.19.25.51.36.82.3l5.59-1.21,2.98,5.58c.14.26.42.43.71.43h.03c.31-.01.58-.19.71-.47l5.88-12.91.47-.35c.12-.09.3-.09.42,0l.47.35,5.88,12.91c.12.28.4.46.71.47h.03c.3,0,.57-.16.71-.43l2.98-5.58,5.59,1.21c.31.07.63-.05.82-.3.19-.25.22-.59.08-.87l-5.98-11.68c.14-.1.26-.2.37-.34.35-.41.51-.95.45-1.48l-.14-1.2c-.02-.16.07-.3.21-.36l1.1-.49c.49-.21.88-.63,1.06-1.13.18-.51.15-1.07-.09-1.55l-.53-1.08c-.07-.14-.04-.3.07-.41l.88-.84c.38-.37.61-.89.61-1.42s-.22-1.06-.61-1.43l-.88-.84c-.11-.11-.14-.27-.07-.41l.53-1.08c.24-.48.27-1.04.09-1.55-.18-.5-.57-.91-1.06-1.13l-1.1-.49c-.14-.06-.23-.2-.21-.36l.14-1.19c.06-.53-.11-1.07-.45-1.49s-.85-.66-1.38-.7l-1.21-.08c-.15-.01-.28-.12-.32-.27l-.28-1.17c-.13-.52-.47-.97-.93-1.24-.46-.26-1.02-.34-1.54-.18l-1.16.34c-.15.04-.31-.01-.39-.14l-.66-1c-.3-.45-.77-.76-1.3-.85-.53-.1-1.08.03-1.51.35l-.97.71c-.12.09-.3.09-.42,0l-.97-.71c-.43-.32-.98-.45-1.51-.35-.53.09-1,.4-1.3.84l-.66,1c-.09.13-.25.19-.39.14l-1.16-.34c-.51-.15-1.07-.08-1.54.18-.46.27-.8.72-.93,1.24l-.28,1.17c-.04.15-.17.26-.32.27l-1.21.08c-.53.03-1.04.29-1.38.7-.35.41-.51.95-.45,1.49l.14,1.19c.02.16-.07.3-.21.36l-1.1.49c-.49.22-.88.63-1.06,1.13-.18.51-.15,1.07.09,1.55l.53,1.08c.07.14.04.3-.07.41l-.88.84c-.38.37-.61.89-.61,1.43s.22,1.05.61,1.42l.88.84c.11.11.14.27.07.41l-.53,1.08c-.24.48-.27,1.04-.09,1.55.18.5.57.92,1.06,1.13l1.1.49c.14.06.23.2.21.36l-.14,1.2c-.05.53.11,1.07.45,1.48.11.13.24.24.37.34L.09,37.27c-.15.28-.11.62.08.87h0ZM32.81,36.49l-4.51-.97c-.36-.08-.71.09-.89.41l-2.49,4.67-4.58-10.05c.49-.11.93-.41,1.21-.82l.66-1c.09-.13.25-.19.39-.14l1.16.34c.52.15,1.07.08,1.54-.18.46-.27.8-.72.93-1.24l.28-1.17c.04-.15.17-.26.32-.27l.6-.04,5.37,10.49ZM5.81,20.73l-1.1-.48c-.12-.05-.17-.15-.19-.2-.02-.05-.04-.16.02-.28l.53-1.08c.38-.78.22-1.7-.41-2.3l-.87-.83c-.1-.09-.11-.2-.11-.25,0-.06.01-.17.11-.26l.87-.83c.63-.6.79-1.52.41-2.3l-.53-1.08c-.06-.12-.03-.22-.02-.28.02-.05.07-.15.19-.2l1.1-.48c.79-.35,1.26-1.16,1.17-2.02l-.13-1.2c-.02-.13.04-.22.08-.26.03-.04.11-.12.24-.13l1.21-.08c.87-.05,1.58-.66,1.79-1.5l.29-1.17c.03-.12.12-.19.17-.22.05-.03.15-.07.28-.03l1.16.34c.83.24,1.71-.08,2.19-.79l.67-1c.07-.11.18-.14.23-.15.05-.01.17-.02.27.07l.97.71c.7.51,1.64.51,2.34,0l.97-.71c.11-.08.22-.08.27-.07.05.01.16.04.23.15l.67,1c.48.72,1.37,1.04,2.19.79l1.16-.34c.12-.04.23,0,.28.03.05.03.14.1.17.22l.29,1.17c.2.84.92,1.45,1.79,1.5l1.21.08c.13,0,.21.08.24.12.04.04.1.14.08.26l-.13,1.2c-.09.86.38,1.68,1.17,2.02l1.1.49c.12.05.17.15.19.2.02.05.04.16-.02.28l-.53,1.08c-.38.78-.22,1.7.41,2.3l.87.83c.1.09.11.2.11.26,0,.05-.01.16-.11.25l-.87.83c-.63.6-.79,1.52-.41,2.3l.53,1.08c.06.12.03.22.02.28-.02.05-.07.15-.19.2l-1.1.48c-.79.35-1.26,1.16-1.17,2.03l.13,1.19c.02.13-.04.22-.08.26-.03.04-.11.12-.24.13l-1.21.08c-.87.05-1.58.66-1.79,1.5l-.29,1.17c-.03.13-.12.19-.17.22-.05.03-.15.07-.28.03l-1.16-.34c-.83-.24-1.71.08-2.19.8l-.67,1c-.07.11-.18.14-.23.15-.05.01-.16.02-.27-.07l-.97-.71c-.7-.51-1.64-.51-2.34,0l-.97.71c-.11.08-.22.08-.27.07s-.16-.04-.23-.15l-.67-1c-.37-.56-.99-.88-1.64-.88-.18,0-.37.03-.56.08l-1.16.34c-.13.04-.23,0-.28-.03-.05-.03-.14-.09-.17-.22l-.29-1.17c-.2-.84-.92-1.45-1.79-1.5l-1.21-.08c-.13-.01-.21-.09-.25-.13-.03-.04-.09-.14-.08-.26l.13-1.2c.09-.86-.38-1.68-1.17-2.02h0ZM7.68,26l.6.04c.15.01.28.12.32.27l.28,1.17c.13.52.46.97.93,1.24.46.26,1.03.34,1.54.18l1.16-.34c.15-.04.31.01.39.14l.66,1c.28.42.72.71,1.21.82l-4.58,10.05-2.49-4.67c-.15-.26-.42-.43-.71-.43-.06,0-.12,0-.17.02l-4.51.97,5.37-10.49h0Z"/><path class="cls-1" d="M17.56,24.25c4.94,0,8.95-4.02,8.95-8.95s-4.01-8.95-8.95-8.95-8.95,4.01-8.95,8.95,4.01,8.95,8.95,8.95ZM17.56,7.97c4.04,0,7.33,3.28,7.33,7.33s-3.29,7.33-7.33,7.33-7.33-3.29-7.33-7.33,3.29-7.33,7.33-7.33Z"/></g></svg>