<?xml version="1.0" encoding="UTF-8"?><svg id="Capa_2" xmlns="http://www.w3.org/2000/svg" viewBox="0 0 129.56 137.77"><defs><style>.cls-1{fill:#222941;}</style></defs><g id="Layer_1__x2B__BOTTOM_FOOTER__x2B__TOP_FOOTER__x2B__OUR_GALLERY__x2B__ABOUT__x2B__CONTACT_US__x2B__ADVANTAGES__x2B__TEAM_LEADERS__x2B__TITLE_SECTION_xA0_Imagen"><path class="cls-1" d="M129.19,67.51C108.67,31.94,63.19,19.74,27.62,40.26c-11.32,6.53-20.72,15.93-27.25,27.25-.49.85-.49,1.9,0,2.75,20.52,35.57,66,47.77,101.57,27.25,11.32-6.53,20.72-15.93,27.25-27.25.49-.85.49-1.9,0-2.75ZM64.78,101.95c-24.03-.03-46.3-12.56-58.82-33.06,19.77-32.49,62.12-42.8,94.61-23.03,9.41,5.72,17.31,13.62,23.03,23.03-12.52,20.51-34.8,33.03-58.82,33.06Z"/><path class="cls-1" d="M64.78,22.04c1.52,0,2.76-1.23,2.76-2.76V2.76c0-1.52-1.23-2.76-2.76-2.76s-2.76,1.23-2.76,2.76v16.53c0,1.52,1.23,2.76,2.76,2.76Z"/><path class="cls-1" d="M22.25,30.25c1.08,1.08,2.82,1.08,3.9,0s1.08-2.82,0-3.9l-11.69-11.69c-1.06-1.09-2.8-1.12-3.9-.07-1.09,1.06-1.12,2.8-.07,3.9.02.02.04.05.07.07l11.69,11.69Z"/><path class="cls-1" d="M105.36,31.06c.73,0,1.43-.29,1.95-.81l11.69-11.69c1.09-1.06,1.12-2.8.07-3.9-1.06-1.09-2.8-1.12-3.9-.07-.02.02-.05.04-.07.07l-11.69,11.69c-1.08,1.08-1.08,2.82,0,3.9.52.52,1.22.81,1.95.81Z"/><path class="cls-1" d="M64.78,115.73c-1.52,0-2.76,1.23-2.76,2.76v16.53c0,1.52,1.23,2.76,2.76,2.76s2.76-1.23,2.76-2.76v-16.53c0-1.52-1.23-2.76-2.76-2.76Z"/><path class="cls-1" d="M22.25,107.52l-11.69,11.69c-1.09,1.06-1.12,2.8-.07,3.9s2.8,1.12,3.9.07c.02-.02.05-.04.07-.07l11.69-11.69c1.06-1.09,1.04-2.83-.05-3.9-1.07-1.04-2.78-1.04-3.85,0h0Z"/><path class="cls-1" d="M107.31,107.52c-1.09-1.06-2.83-1.04-3.9.05-1.04,1.07-1.04,2.78,0,3.85l11.69,11.69c1.09,1.06,2.84,1.03,3.9-.07,1.03-1.07,1.03-2.76,0-3.83l-11.69-11.69Z"/><path class="cls-1" d="M73.45,68.48c5.86-4.81,6.7-13.47,1.88-19.32s-13.47-6.7-19.32-1.88c-5.19,4.27-6.53,11.67-3.16,17.48h0c.85,1.45,1.95,2.73,3.26,3.78-7.83,3.53-13,11.16-13.37,19.73v2.66c0,1.52,1.23,2.76,2.76,2.76h38.58c1.52,0,2.76-1.23,2.76-2.76v-2.3c-.03-8.78-5.29-16.71-13.38-20.14ZM64.78,49.6c4.57,0,8.27,3.7,8.27,8.27s-3.7,8.27-8.27,8.27c-4.57,0-8.27-3.7-8.27-8.27h0c0-4.57,3.7-8.27,8.27-8.27ZM48.25,88.17c.5-7.81,6.23-14.29,13.91-15.76,5.24-.85,10.57.88,14.32,4.63,3,2.94,4.73,6.93,4.83,11.12h-33.06Z"/></g></svg>