<?xml version="1.0" encoding="UTF-8"?><svg id="Capa_2" xmlns="http://www.w3.org/2000/svg" viewBox="0 0 110.99 166.81"><defs><style>.cls-1{fill:#222941;fill-rule:evenodd;}</style></defs><g id="Layer_1__x2B__BOTTOM_FOOTER__x2B__TOP_FOOTER__x2B__OUR_GALLERY__x2B__ABOUT__x2B__CONTACT_US__x2B__ADVANTAGES__x2B__TEAM_LEADERS__x2B__TITLE_SECTION_xA0_Imagen"><path class="cls-1" d="M61.2,51.56c1.49.32,3.19.62,5.05.97,8.72,1.59,20.65,3.73,29.66,8.76,8.65,4.82,14.79,12.11,15.08,23.07.13,4.58-1.03,8.24-3.18,11.14-3.09,4.19-8.34,6.88-15.23,8.33-13.53,2.83-34.5.66-51.65,2.61-5.54.63-10.67,1.65-14.74,3.7-3.49,1.76-6.14,4.34-7.32,8.28-1.6,5.35.46,9.66,4.26,13.26,2.99,2.83,6.99,5.25,11.39,7.39,21.11,10.28,52.2,13.48,52.2,13.48h.03c3.92.44,6.75,3.98,6.32,7.91-.43,3.92-3.98,6.75-7.91,6.32h-.03c-.4-.05-43.82-5.44-65.59-20.88-11.25-7.97-17.19-18.43-13.15-31.3,2.92-9.31,9.86-14.91,19.34-17.97,16.94-5.48,43.14-1.86,60.73-3.88,3.36-.39,6.36-.96,8.74-2,2.59-1.15,4.23-2.98,4.19-6.14-.09-6.46-4-10.56-9.05-13.48-9.82-5.66-23.67-7.24-31.41-8.97-2.91-.63-4.76-3.51-4.14-6.43.62-2.91,3.5-4.77,6.42-4.15h0ZM60.19,56.35c-.29-.06-.57.12-.63.41-.06.28.13.56.41.62h0c8.1,1.8,22.53,3.59,32.8,9.5,6.55,3.77,11.38,9.27,11.49,17.64.07,5.48-2.63,8.72-7.1,10.69-2.77,1.22-6.25,1.94-10.15,2.38-17.31,1.99-43.1-1.7-59.79,3.68-7.86,2.53-13.75,7.06-16.17,14.78-3.36,10.7,1.95,19.22,11.3,25.85,20.91,14.82,62.53,19.91,63.33,20.01h0c1.24.14,2.35-.76,2.5-2,.14-1.24-.76-2.36-2-2.51-.69-.07-32.28-3.45-53.83-13.94-4.88-2.38-9.29-5.1-12.61-8.24-5.2-4.92-7.77-10.89-5.58-18.21,1.59-5.31,5.09-8.86,9.81-11.24,4.53-2.29,10.22-3.49,16.39-4.2,17-1.94,37.78.28,51.19-2.53,8.99-1.88,14.77-5.97,14.53-14.54-.24-9.05-5.45-14.95-12.57-18.93-10.47-5.85-25.11-7.5-33.33-9.21h0ZM41.8,52.64l-.05-.05s-8.54-11-13.68-20.9c-2.38-4.58-3.98-8.98-3.98-12.1C24.08,8.78,32.87,0,43.67,0s19.6,8.78,19.6,19.59c0,3.12-1.61,7.52-3.98,12.1-5.13,9.9-13.68,20.9-13.68,20.9l-.05.05h1.1c1.35,0,2.44,1.1,2.44,2.44s-1.1,2.44-2.44,2.44h-5.95c-1.35,0-2.44-1.1-2.44-2.44s1.1-2.44,2.44-2.44h1.1ZM43.67,4.89c-8.11,0-14.7,6.59-14.7,14.71,0,2.55,1.48,6.1,3.43,9.86,3.46,6.67,8.53,13.85,11.27,17.57,2.75-3.72,7.82-10.9,11.28-17.57,1.95-3.76,3.43-7.3,3.43-9.86,0-8.12-6.59-14.71-14.71-14.71ZM43.67,9.76c5.43,0,9.84,4.41,9.84,9.84s-4.41,9.84-9.84,9.84-9.84-4.41-9.84-9.84,4.41-9.84,9.84-9.84ZM43.67,14.64c-2.72,0-4.94,2.22-4.94,4.95s2.22,4.95,4.94,4.95,4.95-2.23,4.95-4.95-2.21-4.95-4.95-4.95ZM70.91,135.35c-2.81.62-6.43.95-10.06.95-5.39,0-10.76-.74-13.51-2.05-2.19-1.04-3.12-2.6-3.12-4.08,0-2.64,1.28-5.13,3.59-7.1,2.95-2.52,7.68-4.24,13.04-4.24,5.03,0,9.52,1.52,12.49,3.79,1.08-.22,2.23-.33,3.41-.33,3.87,0,7.29,1.26,9.42,3.08,1.76,1.51,2.72,3.43,2.72,5.45,0,1.23-.68,2.53-2.43,3.41-2.91,1.48-10.53,1.93-15.56,1.12h0ZM70.98,127.04c-.09-.08-.18-.17-.28-.24-2.22-1.9-5.82-3.06-9.86-3.06s-7.65,1.16-9.86,3.06c-.97.82-1.67,1.79-1.84,2.87.29.15.8.41,1.21.54,2.54.82,6.52,1.2,10.49,1.2,3.42,0,6.84-.28,9.36-.89.06-.02.14-.04.2-.05.33-.09.63-.18.92-.27.43-.14.92-.39,1.22-.54-.15-.94-.71-1.8-1.49-2.56-.03-.02-.05-.05-.07-.06h0ZM77.4,130.88c1.7-.03,3.37-.16,4.75-.42.54-.1,1.18-.3,1.64-.45-.28-.55-.83-1.01-1.49-1.42-1.38-.87-3.29-1.38-5.39-1.41.37.97.57,1.96.57,3,0,.24-.03.47-.07.71h0ZM17.98,86.36c-5.02.81-12.64.35-15.57-1.12-1.74-.87-2.42-2.19-2.42-3.41,0-2.02.96-3.94,2.73-5.45,2.12-1.82,5.53-3.08,9.4-3.08,1.19,0,2.34.12,3.42.33,2.97-2.28,7.45-3.78,12.49-3.78,5.37,0,10.09,1.7,13.04,4.22,2.31,1.98,3.59,4.47,3.59,7.11,0,1.48-.93,3.05-3.12,4.08-2.74,1.31-8.13,2.05-13.51,2.05-3.62,0-7.25-.33-10.06-.95h0ZM11.98,78.19c-2.11.03-4.01.53-5.4,1.4-.65.42-1.21.88-1.49,1.43.33.12.76.26,1.12.34,1.48.32,3.36.48,5.28.52-.05-.24-.06-.47-.06-.71,0-1.02.19-2.03.56-2.99h0ZM18.69,81.52c2.51.61,5.94.9,9.36.9,3.97,0,7.95-.39,10.48-1.21.43-.14.93-.39,1.22-.54-.17-1.08-.87-2.05-1.84-2.88-2.23-1.89-5.83-3.05-9.86-3.05s-7.64,1.16-9.86,3.05c-.1.09-.2.17-.28.25l-.06.06c-.8.76-1.35,1.61-1.5,2.56.3.15.8.41,1.22.54.29.1.6.19.92.26.06.02.14.04.2.05h0Z"/></g></svg>